SplineFontDB: 3.0
FontName: ProtoThrottleLCD
FullName: ProtoThrottleLCD
FamilyName: ProtoThrottleLCD
Weight: Medium
Copyright: Created by Michael Petersen,,, with FontForge 2.0 (http://fontforge.sf.net)
UComments: "2017-9-22: Created." 
Version: 001.000
ItalicAngle: 0
UnderlinePosition: -115.093
UnderlineWidth: 18.7143
Ascent: 1120
Descent: 190
LayerCount: 2
Layer: 0 0 "Back"  1
Layer: 1 0 "Fore"  0
XUID: [1021 96 293617612 9210177]
FSType: 0
OS2Version: 0
OS2_WeightWidthSlopeOnly: 0
OS2_UseTypoMetrics: 1
CreationTime: 1506095843
ModificationTime: 1518669370
PfmFamily: 17
TTFWeight: 500
TTFWidth: 5
LineGap: 118
VLineGap: 118
OS2TypoAscent: 0
OS2TypoAOffset: 1
OS2TypoDescent: 0
OS2TypoDOffset: 1
OS2TypoLinegap: 118
OS2WinAscent: 0
OS2WinAOffset: 1
OS2WinDescent: 0
OS2WinDOffset: 1
HheadAscent: 0
HheadAOffset: 1
HheadDescent: 0
HheadDOffset: 1
OS2Vendor: 'PfEd'
MarkAttachClasses: 1
DEI: 91125
LangName: 1033 
MATH:ScriptPercentScaleDown: 80
MATH:ScriptScriptPercentScaleDown: 60
MATH:DelimitedSubFormulaMinHeight: 1965
MATH:DisplayOperatorMinHeight: 0
MATH:MathLeading: 0 
MATH:AxisHeight: 0 
MATH:AccentBaseHeight: 1048 
MATH:FlattenedAccentBaseHeight: 1048 
MATH:SubscriptShiftDown: 187 
MATH:SubscriptTopMax: 1048 
MATH:SubscriptBaselineDropMin: 0 
MATH:SuperscriptShiftUp: 593 
MATH:SuperscriptShiftUpCramped: 0 
MATH:SuperscriptBottomMin: 1048 
MATH:SuperscriptBaselineDropMax: 0 
MATH:SubSuperscriptGapMin: 75 
MATH:SuperscriptBottomMaxWithSubscript: 1048 
MATH:SpaceAfterScript: 54 
MATH:UpperLimitGapMin: 0 
MATH:UpperLimitBaselineRiseMin: 0 
MATH:LowerLimitGapMin: 0 
MATH:LowerLimitBaselineDropMin: 0 
MATH:StackTopShiftUp: 0 
MATH:StackTopDisplayStyleShiftUp: 0 
MATH:StackBottomShiftDown: 0 
MATH:StackBottomDisplayStyleShiftDown: 0 
MATH:StackGapMin: 56 
MATH:StackDisplayStyleGapMin: 131 
MATH:StretchStackTopShiftUp: 0 
MATH:StretchStackBottomShiftDown: 0 
MATH:StretchStackGapAboveMin: 0 
MATH:StretchStackGapBelowMin: 0 
MATH:FractionNumeratorShiftUp: 0 

StartChar: ydieresis
Encoding: 255 255 0
Width: 801
VWidth: 1834
Flags: HW
LayerCount: 2
Fore
SplineSet
66 -73 m 1
 66 55 l 1
 196 55 l 1
 196 -73 l 1
 66 -73 l 1
634 -73 m 1
 634 55 l 1
 764 55 l 1
 764 -73 l 1
 634 -73 l 1
209 -73 m 1
 209 55 l 1
 338 55 l 1
 338 -73 l 1
 209 -73 l 1
351 -73 m 1
 351 55 l 1
 479 55 l 1
 479 -73 l 1
 351 -73 l 1
492 -73 m 1
 492 55 l 1
 621 55 l 1
 621 -73 l 1
 492 -73 l 1
66 210 m 1
 66 339 l 1
 196 339 l 1
 196 210 l 1
 66 210 l 1
66 351 m 1
 66 480 l 1
 196 480 l 1
 196 351 l 1
 66 351 l 1
66 493 m 1
 66 622 l 1
 196 622 l 1
 196 493 l 1
 66 493 l 1
66 635 m 1
 66 764 l 1
 196 764 l 1
 196 635 l 1
 66 635 l 1
66 777 m 1
 66 906 l 1
 196 906 l 1
 196 777 l 1
 66 777 l 1
209 210 m 1
 209 339 l 1
 338 339 l 1
 338 210 l 1
 209 210 l 1
351 210 m 1
 351 339 l 1
 479 339 l 1
 479 210 l 1
 351 210 l 1
492 210 m 1
 492 339 l 1
 621 339 l 1
 621 210 l 1
 492 210 l 1
209 351 m 1
 209 480 l 1
 338 480 l 1
 338 351 l 1
 209 351 l 1
351 351 m 1
 351 480 l 1
 479 480 l 1
 479 351 l 1
 351 351 l 1
492 351 m 1
 492 480 l 1
 621 480 l 1
 621 351 l 1
 492 351 l 1
209 493 m 1
 209 622 l 1
 338 622 l 1
 338 493 l 1
 209 493 l 1
351 493 m 1
 351 622 l 1
 479 622 l 1
 479 493 l 1
 351 493 l 1
492 493 m 1
 492 622 l 1
 621 622 l 1
 621 493 l 1
 492 493 l 1
209 635 m 1
 209 764 l 1
 338 764 l 1
 338 635 l 1
 209 635 l 1
351 635 m 1
 351 764 l 1
 479 764 l 1
 479 635 l 1
 351 635 l 1
492 635 m 1
 492 764 l 1
 621 764 l 1
 621 635 l 1
 492 635 l 1
209 777 m 1
 209 906 l 1
 338 906 l 1
 338 777 l 1
 209 777 l 1
351 777 m 1
 351 906 l 1
 479 906 l 1
 479 777 l 1
 351 777 l 1
492 777 m 1
 492 906 l 1
 621 906 l 1
 621 777 l 1
 492 777 l 1
66 68 m 1
 66 196 l 1
 196 196 l 1
 196 68 l 1
 66 68 l 1
634 68 m 1
 634 196 l 1
 764 196 l 1
 764 68 l 1
 634 68 l 1
634 919 m 1
 634 1048 l 1
 764 1048 l 1
 764 919 l 1
 634 919 l 1
66 919 m 1
 66 1048 l 1
 196 1048 l 1
 196 919 l 1
 66 919 l 1
209 68 m 1
 209 196 l 1
 338 196 l 1
 338 68 l 1
 209 68 l 1
351 68 m 1
 351 196 l 1
 479 196 l 1
 479 68 l 1
 351 68 l 1
492 68 m 1
 492 196 l 1
 621 196 l 1
 621 68 l 1
 492 68 l 1
634 210 m 1
 634 339 l 1
 764 339 l 1
 764 210 l 1
 634 210 l 1
634 352 m 1
 634 481 l 1
 764 481 l 1
 764 352 l 1
 634 352 l 1
634 493 m 1
 634 622 l 1
 764 622 l 1
 764 493 l 1
 634 493 l 1
634 635 m 1
 634 764 l 1
 764 764 l 1
 764 635 l 1
 634 635 l 1
634 777 m 1
 634 906 l 1
 764 906 l 1
 764 777 l 1
 634 777 l 1
209 919 m 1
 209 1048 l 1
 338 1048 l 1
 338 919 l 1
 209 919 l 1
351 919 m 1
 351 1048 l 1
 479 1048 l 1
 479 919 l 1
 351 919 l 1
492 919 m 1
 492 1048 l 1
 621 1048 l 1
 621 919 l 1
 492 919 l 1
EndSplineSet
EndChar

StartChar: exclam
Encoding: 33 33 1
Width: 801
VWidth: 1834
Flags: HW
LayerCount: 2
Fore
SplineSet
351 493 m 1
 351 622 l 1
 479 622 l 1
 479 493 l 1
 351 493 l 1
351 635 m 1
 351 764 l 1
 479 764 l 1
 479 635 l 1
 351 635 l 1
351 777 m 1
 351 906 l 1
 479 906 l 1
 479 777 l 1
 351 777 l 1
351 68 m 1
 351 196 l 1
 479 196 l 1
 479 68 l 1
 351 68 l 1
351 919 m 1
 351 1048 l 1
 479 1048 l 1
 479 919 l 1
 351 919 l 1
EndSplineSet
Validated: 1
EndChar

StartChar: A
Encoding: 65 65 2
Width: 801
VWidth: 1834
Flags: HW
LayerCount: 2
Fore
SplineSet
66 210 m 1
 66 339 l 1
 196 339 l 1
 196 210 l 1
 66 210 l 1
66 351 m 1
 66 480 l 1
 196 480 l 1
 196 351 l 1
 66 351 l 1
66 493 m 1
 66 622 l 1
 196 622 l 1
 196 493 l 1
 66 493 l 1
66 635 m 1
 66 764 l 1
 196 764 l 1
 196 635 l 1
 66 635 l 1
66 777 m 1
 66 906 l 1
 196 906 l 1
 196 777 l 1
 66 777 l 1
209 351 m 1
 209 480 l 1
 338 480 l 1
 338 351 l 1
 209 351 l 1
351 351 m 1
 351 480 l 1
 479 480 l 1
 479 351 l 1
 351 351 l 1
492 351 m 1
 492 480 l 1
 621 480 l 1
 621 351 l 1
 492 351 l 1
66 68 m 1
 66 196 l 1
 196 196 l 1
 196 68 l 1
 66 68 l 1
634 68 m 1
 634 196 l 1
 764 196 l 1
 764 68 l 1
 634 68 l 1
634 210 m 1
 634 339 l 1
 764 339 l 1
 764 210 l 1
 634 210 l 1
634 352 m 1
 634 481 l 1
 764 481 l 1
 764 352 l 1
 634 352 l 1
634 493 m 1
 634 622 l 1
 764 622 l 1
 764 493 l 1
 634 493 l 1
634 635 m 1
 634 764 l 1
 764 764 l 1
 764 635 l 1
 634 635 l 1
634 777 m 1
 634 906 l 1
 764 906 l 1
 764 777 l 1
 634 777 l 1
209 919 m 1
 209 1048 l 1
 338 1048 l 1
 338 919 l 1
 295 919 252 919 209 919 c 1
351 919 m 1
 351 1048 l 1
 479 1048 l 1
 479 919 l 1
 351 919 l 1
492 919 m 1
 492 1048 l 1
 621 1048 l 1
 621 919 l 1
 492 919 l 1
EndSplineSet
Validated: 1
EndChar

StartChar: B
Encoding: 66 66 3
Width: 801
VWidth: 1834
Flags: HW
LayerCount: 2
Fore
SplineSet
66 210 m 1
 66 339 l 1
 196 339 l 1
 196 210 l 1
 66 210 l 1
66 351 m 1
 66 480 l 1
 196 480 l 1
 196 351 l 1
 66 351 l 1
66 493 m 1
 66 622 l 1
 196 622 l 1
 196 493 l 1
 66 493 l 1
66 635 m 1
 66 764 l 1
 196 764 l 1
 196 635 l 1
 66 635 l 1
66 777 m 1
 66 906 l 1
 196 906 l 1
 196 777 l 1
 66 777 l 1
209 493 m 1
 209 622 l 1
 338 622 l 1
 338 493 l 1
 209 493 l 1
351 493 m 1
 351 622 l 1
 479 622 l 1
 479 493 l 1
 351 493 l 1
492 493 m 1
 492 622 l 1
 621 622 l 1
 621 493 l 1
 492 493 l 1
66 68 m 1
 66 196 l 1
 196 196 l 1
 196 68 l 1
 66 68 l 1
66 919 m 1
 66 1048 l 1
 196 1048 l 1
 196 919 l 1
 66 919 l 1
209 68 m 1
 209 196 l 1
 338 196 l 1
 338 68 l 1
 209 68 l 1
351 68 m 1
 351 196 l 1
 479 196 l 1
 479 68 l 1
 351 68 l 1
492 68 m 1
 492 196 l 1
 621 196 l 1
 621 68 l 1
 492 68 l 1
634 210 m 1
 634 339 l 1
 764 339 l 1
 764 210 l 1
 634 210 l 1
634 352 m 1
 634 481 l 1
 764 481 l 1
 764 352 l 1
 634 352 l 1
634 635 m 1
 634 764 l 1
 764 764 l 1
 764 635 l 1
 634 635 l 1
634 777 m 1
 634 906 l 1
 764 906 l 1
 764 777 l 1
 634 777 l 1
209 919 m 1
 209 1048 l 1
 338 1048 l 1
 338 919 l 1
 209 919 l 1
351 919 m 1
 351 1048 l 1
 479 1048 l 1
 479 919 l 1
 351 919 l 1
492 919 m 1
 492 1048 l 1
 621 1048 l 1
 621 919 l 1
 492 919 l 1
EndSplineSet
Validated: 1
EndChar

StartChar: C
Encoding: 67 67 4
Width: 801
VWidth: 1834
Flags: HW
LayerCount: 2
Fore
SplineSet
66 210 m 1
 66 339 l 1
 196 339 l 1
 196 210 l 1
 66 210 l 1
66 351 m 1
 66 480 l 1
 196 480 l 1
 196 351 l 1
 66 351 l 1
66 493 m 1
 66 622 l 1
 196 622 l 1
 196 493 l 1
 66 493 l 1
66 635 m 1
 66 764 l 1
 196 764 l 1
 196 635 l 1
 66 635 l 1
66 777 m 1
 66 906 l 1
 196 906 l 1
 196 777 l 1
 66 777 l 1
209 68 m 1
 209 196 l 1
 338 196 l 1
 338 68 l 1
 209 68 l 1
351 68 m 1
 351 196 l 1
 479 196 l 1
 479 68 l 1
 351 68 l 1
492 68 m 1
 492 196 l 1
 621 196 l 1
 621 68 l 1
 492 68 l 1
634 210 m 1
 634 339 l 1
 764 339 l 1
 764 210 l 1
 634 210 l 1
634 777 m 1
 634 906 l 1
 764 906 l 1
 764 777 l 1
 634 777 l 1
209 919 m 1
 209 1048 l 1
 338 1048 l 1
 338 919 l 1
 209 919 l 1
351 919 m 1
 351 1048 l 1
 479 1048 l 1
 479 919 l 1
 351 919 l 1
492 919 m 1
 492 1048 l 1
 621 1048 l 1
 621 919 l 1
 492 919 l 1
EndSplineSet
Validated: 1
EndChar

StartChar: D
Encoding: 68 68 5
Width: 801
VWidth: 1834
Flags: HW
LayerCount: 2
Fore
SplineSet
66 210 m 1
 66 339 l 1
 196 339 l 1
 196 210 l 1
 66 210 l 1
66 351 m 1
 66 480 l 1
 196 480 l 1
 196 351 l 1
 66 351 l 1
66 493 m 1
 66 622 l 1
 196 622 l 1
 196 493 l 1
 66 493 l 1
66 635 m 1
 66 764 l 1
 196 764 l 1
 196 635 l 1
 66 635 l 1
66 777 m 1
 66 906 l 1
 196 906 l 1
 196 777 l 1
 66 777 l 1
492 210 m 1
 492 339 l 1
 621 339 l 1
 621 210 l 1
 492 210 l 1
492 777 m 1
 492 906 l 1
 621 906 l 1
 621 777 l 1
 492 777 l 1
66 68 m 1
 66 196 l 1
 196 196 l 1
 196 68 l 1
 66 68 l 1
66 919 m 1
 66 1048 l 1
 196 1048 l 1
 196 919 l 1
 66 919 l 1
209 68 m 1
 209 196 l 1
 338 196 l 1
 338 68 l 1
 209 68 l 1
351 68 m 1
 351 196 l 1
 479 196 l 1
 479 68 l 1
 351 68 l 1
634 352 m 1
 634 481 l 1
 764 481 l 1
 764 352 l 1
 634 352 l 1
634 493 m 1
 634 622 l 1
 764 622 l 1
 764 493 l 1
 634 493 l 1
634 635 m 1
 634 764 l 1
 764 764 l 1
 764 635 l 1
 634 635 l 1
209 919 m 1
 209 1048 l 1
 338 1048 l 1
 338 919 l 1
 209 919 l 1
351 919 m 1
 351 1048 l 1
 479 1048 l 1
 479 919 l 1
 351 919 l 1
EndSplineSet
Validated: 1
EndChar

StartChar: E
Encoding: 69 69 6
Width: 801
VWidth: 1834
Flags: HW
LayerCount: 2
Fore
SplineSet
66 210 m 1
 66 339 l 1
 196 339 l 1
 196 210 l 1
 66 210 l 1
66 351 m 1
 66 480 l 1
 196 480 l 1
 196 351 l 1
 66 351 l 1
66 493 m 1
 66 622 l 1
 196 622 l 1
 196 493 l 1
 66 493 l 1
66 635 m 1
 66 764 l 1
 196 764 l 1
 196 635 l 1
 66 635 l 1
66 777 m 1
 66 906 l 1
 196 906 l 1
 196 777 l 1
 66 777 l 1
209 493 m 1
 209 622 l 1
 338 622 l 1
 338 493 l 1
 209 493 l 1
351 493 m 1
 351 622 l 1
 479 622 l 1
 479 493 l 1
 351 493 l 1
492 493 m 1
 492 622 l 1
 621 622 l 1
 621 493 l 1
 492 493 l 1
66 68 m 1
 66 196 l 1
 196 196 l 1
 196 68 l 1
 66 68 l 1
634 68 m 1
 634 196 l 1
 764 196 l 1
 764 68 l 1
 634 68 l 1
634 919 m 1
 634 1048 l 1
 764 1048 l 1
 764 919 l 1
 634 919 l 1
66 919 m 1
 66 1048 l 1
 196 1048 l 1
 196 919 l 1
 66 919 l 1
209 68 m 1
 209 196 l 1
 338 196 l 1
 338 68 l 1
 209 68 l 1
351 68 m 1
 351 196 l 1
 479 196 l 1
 479 68 l 1
 351 68 l 1
492 68 m 1
 492 196 l 1
 621 196 l 1
 621 68 l 1
 492 68 l 1
209 919 m 1
 209 1048 l 1
 338 1048 l 1
 338 919 l 1
 209 919 l 1
351 919 m 1
 351 1048 l 1
 479 1048 l 1
 479 919 l 1
 351 919 l 1
492 919 m 1
 492 1048 l 1
 621 1048 l 1
 621 919 l 1
 492 919 l 1
EndSplineSet
Validated: 1
EndChar

StartChar: F
Encoding: 70 70 7
Width: 801
VWidth: 1834
Flags: HW
LayerCount: 2
Fore
SplineSet
66 210 m 1
 66 339 l 1
 196 339 l 1
 196 210 l 1
 66 210 l 1
66 351 m 1
 66 480 l 1
 196 480 l 1
 196 351 l 1
 66 351 l 1
66 493 m 1
 66 622 l 1
 196 622 l 1
 196 493 l 1
 66 493 l 1
66 635 m 1
 66 764 l 1
 196 764 l 1
 196 635 l 1
 66 635 l 1
66 777 m 1
 66 906 l 1
 196 906 l 1
 196 777 l 1
 66 777 l 1
209 493 m 1
 209 622 l 1
 338 622 l 1
 338 493 l 1
 209 493 l 1
351 493 m 1
 351 622 l 1
 479 622 l 1
 479 493 l 1
 351 493 l 1
492 493 m 1
 492 622 l 1
 621 622 l 1
 621 493 l 1
 492 493 l 1
66 68 m 1
 66 196 l 1
 196 196 l 1
 196 68 l 1
 66 68 l 1
634 919 m 1
 634 1048 l 1
 764 1048 l 1
 764 919 l 1
 634 919 l 1
66 919 m 1
 66 1048 l 1
 196 1048 l 1
 196 919 l 1
 66 919 l 1
209 919 m 1
 209 1048 l 1
 338 1048 l 1
 338 919 l 1
 209 919 l 1
351 919 m 1
 351 1048 l 1
 479 1048 l 1
 479 919 l 1
 351 919 l 1
492 919 m 1
 492 1048 l 1
 621 1048 l 1
 621 919 l 1
 492 919 l 1
EndSplineSet
Validated: 1
EndChar

StartChar: G
Encoding: 71 71 8
Width: 801
VWidth: 1834
Flags: HW
LayerCount: 2
Fore
SplineSet
66 210 m 1
 66 339 l 1
 196 339 l 1
 196 210 l 1
 66 210 l 1
66 351 m 1
 66 480 l 1
 196 480 l 1
 196 351 l 1
 66 351 l 1
66 493 m 1
 66 622 l 1
 196 622 l 1
 196 493 l 1
 66 493 l 1
66 635 m 1
 66 764 l 1
 196 764 l 1
 196 635 l 1
 66 635 l 1
66 777 m 1
 66 906 l 1
 196 906 l 1
 196 777 l 1
 66 777 l 1
351 493 m 1
 351 622 l 1
 479 622 l 1
 479 493 l 1
 351 493 l 1
492 493 m 1
 492 622 l 1
 621 622 l 1
 621 493 l 1
 492 493 l 1
634 68 m 1
 634 196 l 1
 764 196 l 1
 764 68 l 1
 634 68 l 1
209 68 m 1
 209 196 l 1
 338 196 l 1
 338 68 l 1
 209 68 l 1
351 68 m 1
 351 196 l 1
 479 196 l 1
 479 68 l 1
 351 68 l 1
492 68 m 1
 492 196 l 1
 621 196 l 1
 621 68 l 1
 492 68 l 1
634 210 m 1
 634 339 l 1
 764 339 l 1
 764 210 l 1
 634 210 l 1
634 352 m 1
 634 481 l 1
 764 481 l 1
 764 352 l 1
 634 352 l 1
634 493 m 1
 634 622 l 1
 764 622 l 1
 764 493 l 1
 634 493 l 1
634 777 m 1
 634 906 l 1
 764 906 l 1
 764 777 l 1
 634 777 l 1
209 919 m 1
 209 1048 l 1
 338 1048 l 1
 338 919 l 1
 209 919 l 1
351 919 m 1
 351 1048 l 1
 479 1048 l 1
 479 919 l 1
 351 919 l 1
492 919 m 1
 492 1048 l 1
 621 1048 l 1
 621 919 l 1
 492 919 l 1
EndSplineSet
Validated: 1
EndChar

StartChar: H
Encoding: 72 72 9
Width: 801
VWidth: 1834
Flags: HW
LayerCount: 2
Fore
SplineSet
66 210 m 1
 66 339 l 1
 196 339 l 1
 196 210 l 1
 66 210 l 1
66 351 m 1
 66 480 l 1
 196 480 l 1
 196 351 l 1
 66 351 l 1
66 493 m 1
 66 622 l 1
 196 622 l 1
 196 493 l 1
 66 493 l 1
66 635 m 1
 66 764 l 1
 196 764 l 1
 196 635 l 1
 66 635 l 1
66 777 m 1
 66 906 l 1
 196 906 l 1
 196 777 l 1
 66 777 l 1
209 493 m 1
 209 622 l 1
 338 622 l 1
 338 493 l 1
 209 493 l 1
351 493 m 1
 351 622 l 1
 479 622 l 1
 479 493 l 1
 351 493 l 1
492 493 m 1
 492 622 l 1
 621 622 l 1
 621 493 l 1
 492 493 l 1
66 68 m 1
 66 196 l 1
 196 196 l 1
 196 68 l 1
 66 68 l 1
634 68 m 1
 634 196 l 1
 764 196 l 1
 764 68 l 1
 634 68 l 1
634 919 m 1
 634 1048 l 1
 764 1048 l 1
 764 919 l 1
 634 919 l 1
66 919 m 1
 66 1048 l 1
 196 1048 l 1
 196 919 l 1
 66 919 l 1
634 210 m 1
 634 339 l 1
 764 339 l 1
 764 210 l 1
 634 210 l 1
634 352 m 1
 634 481 l 1
 764 481 l 1
 764 352 l 1
 634 352 l 1
634 493 m 1
 634 622 l 1
 764 622 l 1
 764 493 l 1
 634 493 l 1
634 635 m 1
 634 764 l 1
 764 764 l 1
 764 635 l 1
 634 635 l 1
634 777 m 1
 634 906 l 1
 764 906 l 1
 764 777 l 1
 634 777 l 1
EndSplineSet
Validated: 1
EndChar

StartChar: I
Encoding: 73 73 10
Width: 801
VWidth: 1834
Flags: HW
LayerCount: 2
Fore
SplineSet
351 210 m 1
 351 339 l 1
 479 339 l 1
 479 210 l 1
 351 210 l 1
351 351 m 1
 351 480 l 1
 479 480 l 1
 479 351 l 1
 351 351 l 1
351 493 m 1
 351 622 l 1
 479 622 l 1
 479 493 l 1
 351 493 l 1
351 635 m 1
 351 764 l 1
 479 764 l 1
 479 635 l 1
 351 635 l 1
351 777 m 1
 351 906 l 1
 479 906 l 1
 479 777 l 1
 351 777 l 1
209 68 m 1
 209 196 l 1
 338 196 l 1
 338 68 l 1
 209 68 l 1
351 68 m 1
 351 196 l 1
 479 196 l 1
 479 68 l 1
 351 68 l 1
492 68 m 1
 492 196 l 1
 621 196 l 1
 621 68 l 1
 492 68 l 1
209 919 m 1
 209 1048 l 1
 338 1048 l 1
 338 919 l 1
 209 919 l 1
351 919 m 1
 351 1048 l 1
 479 1048 l 1
 479 919 l 1
 351 919 l 1
492 919 m 1
 492 1048 l 1
 621 1048 l 1
 621 919 l 1
 492 919 l 1
EndSplineSet
Validated: 1
EndChar

StartChar: J
Encoding: 74 74 11
Width: 801
VWidth: 1834
Flags: HW
LayerCount: 2
Fore
SplineSet
66 210 m 1
 66 339 l 1
 196 339 l 1
 196 210 l 1
 66 210 l 1
492 210 m 1
 492 339 l 1
 621 339 l 1
 621 210 l 1
 492 210 l 1
492 351 m 1
 492 480 l 1
 621 480 l 1
 621 351 l 1
 492 351 l 1
492 493 m 1
 492 622 l 1
 621 622 l 1
 621 493 l 1
 492 493 l 1
492 635 m 1
 492 764 l 1
 621 764 l 1
 621 635 l 1
 492 635 l 1
492 777 m 1
 492 906 l 1
 621 906 l 1
 621 777 l 1
 492 777 l 1
634 919 m 1
 634 1048 l 1
 764 1048 l 1
 764 919 l 1
 634 919 l 1
209 68 m 1
 209 196 l 1
 338 196 l 1
 338 68 l 1
 209 68 l 1
351 68 m 1
 351 196 l 1
 479 196 l 1
 479 68 l 1
 351 68 l 1
351 919 m 1
 351 1048 l 1
 479 1048 l 1
 479 919 l 1
 351 919 l 1
492 919 m 1
 492 1048 l 1
 621 1048 l 1
 621 919 l 1
 492 919 l 1
EndSplineSet
Validated: 1
EndChar

StartChar: K
Encoding: 75 75 12
Width: 801
VWidth: 1834
Flags: HW
LayerCount: 2
Fore
SplineSet
66 210 m 1
 66 339 l 1
 196 339 l 1
 196 210 l 1
 66 210 l 1
66 351 m 1
 66 480 l 1
 196 480 l 1
 196 351 l 1
 66 351 l 1
66 493 m 1
 66 622 l 1
 196 622 l 1
 196 493 l 1
 66 493 l 1
66 635 m 1
 66 764 l 1
 196 764 l 1
 196 635 l 1
 66 635 l 1
66 777 m 1
 66 906 l 1
 196 906 l 1
 196 777 l 1
 66 777 l 1
492 210 m 1
 492 339 l 1
 621 339 l 1
 621 210 l 1
 492 210 l 1
351 351 m 1
 351 480 l 1
 479 480 l 1
 479 351 l 1
 351 351 l 1
209 493 m 1
 209 622 l 1
 338 622 l 1
 338 493 l 1
 209 493 l 1
351 635 m 1
 351 764 l 1
 479 764 l 1
 479 635 l 1
 351 635 l 1
492 777 m 1
 492 906 l 1
 621 906 l 1
 621 777 l 1
 492 777 l 1
66 68 m 1
 66 196 l 1
 196 196 l 1
 196 68 l 1
 66 68 l 1
634 68 m 1
 634 196 l 1
 764 196 l 1
 764 68 l 1
 634 68 l 1
634 919 m 1
 634 1048 l 1
 764 1048 l 1
 764 919 l 1
 634 919 l 1
66 919 m 1
 66 1048 l 1
 196 1048 l 1
 196 919 l 1
 66 919 l 1
EndSplineSet
Validated: 1
EndChar

StartChar: L
Encoding: 76 76 13
Width: 801
VWidth: 1834
Flags: HW
LayerCount: 2
Fore
SplineSet
66 210 m 1
 66 339 l 1
 196 339 l 1
 196 210 l 1
 66 210 l 1
66 351 m 1
 66 480 l 1
 196 480 l 1
 196 351 l 1
 66 351 l 1
66 493 m 1
 66 622 l 1
 196 622 l 1
 196 493 l 1
 66 493 l 1
66 635 m 1
 66 764 l 1
 196 764 l 1
 196 635 l 1
 66 635 l 1
66 777 m 1
 66 906 l 1
 196 906 l 1
 196 777 l 1
 66 777 l 1
66 68 m 1
 66 196 l 1
 196 196 l 1
 196 68 l 1
 66 68 l 1
634 68 m 1
 634 196 l 1
 764 196 l 1
 764 68 l 1
 634 68 l 1
66 919 m 1
 66 1048 l 1
 196 1048 l 1
 196 919 l 1
 66 919 l 1
209 68 m 1
 209 196 l 1
 338 196 l 1
 338 68 l 1
 209 68 l 1
351 68 m 1
 351 196 l 1
 479 196 l 1
 479 68 l 1
 351 68 l 1
492 68 m 1
 492 196 l 1
 621 196 l 1
 621 68 l 1
 492 68 l 1
EndSplineSet
Validated: 1
EndChar

StartChar: M
Encoding: 77 77 14
Width: 801
VWidth: 1834
Flags: HW
LayerCount: 2
Fore
SplineSet
66 210 m 1
 66 339 l 1
 196 339 l 1
 196 210 l 1
 66 210 l 1
66 351 m 1
 66 480 l 1
 196 480 l 1
 196 351 l 1
 66 351 l 1
66 493 m 1
 66 622 l 1
 196 622 l 1
 196 493 l 1
 66 493 l 1
66 635 m 1
 66 764 l 1
 196 764 l 1
 196 635 l 1
 66 635 l 1
66 777 m 1
 66 906 l 1
 196 906 l 1
 196 777 l 1
 66 777 l 1
351 493 m 1
 351 622 l 1
 479 622 l 1
 479 493 l 1
 351 493 l 1
351 635 m 1
 351 764 l 1
 479 764 l 1
 479 635 l 1
 351 635 l 1
209 777 m 1
 209 906 l 1
 338 906 l 1
 338 777 l 1
 209 777 l 1
492 777 m 1
 492 906 l 1
 621 906 l 1
 621 777 l 1
 492 777 l 1
66 68 m 1
 66 196 l 1
 196 196 l 1
 196 68 l 1
 66 68 l 1
634 68 m 1
 634 196 l 1
 764 196 l 1
 764 68 l 1
 634 68 l 1
634 919 m 1
 634 1048 l 1
 764 1048 l 1
 764 919 l 1
 634 919 l 1
66 919 m 1
 66 1048 l 1
 196 1048 l 1
 196 919 l 1
 66 919 l 1
634 210 m 1
 634 339 l 1
 764 339 l 1
 764 210 l 1
 634 210 l 1
634 352 m 1
 634 481 l 1
 764 481 l 1
 764 352 l 1
 634 352 l 1
634 493 m 1
 634 622 l 1
 764 622 l 1
 764 493 l 1
 634 493 l 1
634 635 m 1
 634 764 l 1
 764 764 l 1
 764 635 l 1
 634 635 l 1
634 777 m 1
 634 906 l 1
 764 906 l 1
 764 777 l 1
 634 777 l 1
EndSplineSet
Validated: 1
EndChar

StartChar: N
Encoding: 78 78 15
Width: 801
VWidth: 1834
Flags: HW
LayerCount: 2
Fore
SplineSet
66 210 m 1
 66 339 l 1
 196 339 l 1
 196 210 l 1
 66 210 l 1
66 351 m 1
 66 480 l 1
 196 480 l 1
 196 351 l 1
 66 351 l 1
66 493 m 1
 66 622 l 1
 196 622 l 1
 196 493 l 1
 66 493 l 1
66 635 m 1
 66 764 l 1
 196 764 l 1
 196 635 l 1
 66 635 l 1
66 777 m 1
 66 906 l 1
 196 906 l 1
 196 777 l 1
 66 777 l 1
492 351 m 1
 492 480 l 1
 621 480 l 1
 621 351 l 1
 492 351 l 1
351 493 m 1
 351 622 l 1
 479 622 l 1
 479 493 l 1
 351 493 l 1
209 635 m 1
 209 764 l 1
 338 764 l 1
 338 635 l 1
 209 635 l 1
66 68 m 1
 66 196 l 1
 196 196 l 1
 196 68 l 1
 66 68 l 1
634 68 m 1
 634 196 l 1
 764 196 l 1
 764 68 l 1
 634 68 l 1
634 919 m 1
 634 1048 l 1
 764 1048 l 1
 764 919 l 1
 634 919 l 1
66 919 m 1
 66 1048 l 1
 196 1048 l 1
 196 919 l 1
 66 919 l 1
634 210 m 1
 634 339 l 1
 764 339 l 1
 764 210 l 1
 634 210 l 1
634 352 m 1
 634 481 l 1
 764 481 l 1
 764 352 l 1
 634 352 l 1
634 493 m 1
 634 622 l 1
 764 622 l 1
 764 493 l 1
 634 493 l 1
634 635 m 1
 634 764 l 1
 764 764 l 1
 764 635 l 1
 634 635 l 1
634 777 m 1
 634 906 l 1
 764 906 l 1
 764 777 l 1
 634 777 l 1
EndSplineSet
Validated: 1
EndChar

StartChar: O
Encoding: 79 79 16
Width: 801
VWidth: 1834
Flags: HW
LayerCount: 2
Fore
SplineSet
66 210 m 1
 66 339 l 1
 196 339 l 1
 196 210 l 1
 66 210 l 1
66 351 m 1
 66 480 l 1
 196 480 l 1
 196 351 l 1
 66 351 l 1
66 493 m 1
 66 622 l 1
 196 622 l 1
 196 493 l 1
 66 493 l 1
66 635 m 1
 66 764 l 1
 196 764 l 1
 196 635 l 1
 66 635 l 1
66 777 m 1
 66 906 l 1
 196 906 l 1
 196 777 l 1
 66 777 l 1
209 68 m 1
 209 196 l 1
 338 196 l 1
 338 68 l 1
 209 68 l 1
351 68 m 1
 351 196 l 1
 479 196 l 1
 479 68 l 1
 351 68 l 1
492 68 m 1
 492 196 l 1
 621 196 l 1
 621 68 l 1
 492 68 l 1
634 210 m 1
 634 339 l 1
 764 339 l 1
 764 210 l 1
 634 210 l 1
634 352 m 1
 634 481 l 1
 764 481 l 1
 764 352 l 1
 634 352 l 1
634 493 m 1
 634 622 l 1
 764 622 l 1
 764 493 l 1
 634 493 l 1
634 635 m 1
 634 764 l 1
 764 764 l 1
 764 635 l 1
 634 635 l 1
634 777 m 1
 634 906 l 1
 764 906 l 1
 764 777 l 1
 634 777 l 1
209 919 m 1
 209 1048 l 1
 338 1048 l 1
 338 919 l 1
 209 919 l 1
351 919 m 1
 351 1048 l 1
 479 1048 l 1
 479 919 l 1
 351 919 l 1
492 919 m 1
 492 1048 l 1
 621 1048 l 1
 621 919 l 1
 492 919 l 1
EndSplineSet
Validated: 1
EndChar

StartChar: P
Encoding: 80 80 17
Width: 801
VWidth: 1834
Flags: HW
LayerCount: 2
Fore
SplineSet
66 210 m 1
 66 339 l 1
 196 339 l 1
 196 210 l 1
 66 210 l 1
66 351 m 1
 66 480 l 1
 196 480 l 1
 196 351 l 1
 66 351 l 1
66 493 m 1
 66 622 l 1
 196 622 l 1
 196 493 l 1
 66 493 l 1
66 635 m 1
 66 764 l 1
 196 764 l 1
 196 635 l 1
 66 635 l 1
66 777 m 1
 66 906 l 1
 196 906 l 1
 196 777 l 1
 66 777 l 1
209 493 m 1
 209 622 l 1
 338 622 l 1
 338 493 l 1
 209 493 l 1
351 493 m 1
 351 622 l 1
 479 622 l 1
 479 493 l 1
 351 493 l 1
492 493 m 1
 492 622 l 1
 621 622 l 1
 621 493 l 1
 492 493 l 1
66 68 m 1
 66 196 l 1
 196 196 l 1
 196 68 l 1
 66 68 l 1
66 919 m 1
 66 1048 l 1
 196 1048 l 1
 196 919 l 1
 66 919 l 1
634 635 m 1
 634 764 l 1
 764 764 l 1
 764 635 l 1
 634 635 l 1
634 777 m 1
 634 906 l 1
 764 906 l 1
 764 777 l 1
 634 777 l 1
209 919 m 1
 209 1048 l 1
 338 1048 l 1
 338 919 l 1
 209 919 l 1
351 919 m 1
 351 1048 l 1
 479 1048 l 1
 479 919 l 1
 351 919 l 1
492 919 m 1
 492 1048 l 1
 621 1048 l 1
 621 919 l 1
 492 919 l 1
EndSplineSet
Validated: 1
EndChar

StartChar: Q
Encoding: 81 81 18
Width: 801
VWidth: 1834
Flags: HW
LayerCount: 2
Fore
SplineSet
66 210 m 1
 66 339 l 1
 196 339 l 1
 196 210 l 1
 66 210 l 1
66 351 m 1
 66 480 l 1
 196 480 l 1
 196 351 l 1
 66 351 l 1
66 493 m 1
 66 622 l 1
 196 622 l 1
 196 493 l 1
 66 493 l 1
66 635 m 1
 66 764 l 1
 196 764 l 1
 196 635 l 1
 66 635 l 1
66 777 m 1
 66 906 l 1
 196 906 l 1
 196 777 l 1
 66 777 l 1
492 210 m 1
 492 339 l 1
 621 339 l 1
 621 210 l 1
 492 210 l 1
351 351 m 1
 351 480 l 1
 479 480 l 1
 479 351 l 1
 351 351 l 1
634 68 m 1
 634 196 l 1
 764 196 l 1
 764 68 l 1
 634 68 l 1
209 68 m 1
 209 196 l 1
 338 196 l 1
 338 68 l 1
 209 68 l 1
351 68 m 1
 351 196 l 1
 479 196 l 1
 479 68 l 1
 351 68 l 1
634 352 m 1
 634 481 l 1
 764 481 l 1
 764 352 l 1
 634 352 l 1
634 493 m 1
 634 622 l 1
 764 622 l 1
 764 493 l 1
 634 493 l 1
634 635 m 1
 634 764 l 1
 764 764 l 1
 764 635 l 1
 634 635 l 1
634 777 m 1
 634 906 l 1
 764 906 l 1
 764 777 l 1
 634 777 l 1
209 919 m 1
 209 1048 l 1
 338 1048 l 1
 338 919 l 1
 209 919 l 1
351 919 m 1
 351 1048 l 1
 479 1048 l 1
 479 919 l 1
 351 919 l 1
492 919 m 1
 492 1048 l 1
 621 1048 l 1
 621 919 l 1
 492 919 l 1
EndSplineSet
Validated: 1
EndChar

StartChar: R
Encoding: 82 82 19
Width: 801
VWidth: 1834
Flags: HW
LayerCount: 2
Fore
SplineSet
66 210 m 1
 66 339 l 1
 196 339 l 1
 196 210 l 1
 66 210 l 1
66 351 m 1
 66 480 l 1
 196 480 l 1
 196 351 l 1
 66 351 l 1
66 493 m 1
 66 622 l 1
 196 622 l 1
 196 493 l 1
 66 493 l 1
66 635 m 1
 66 764 l 1
 196 764 l 1
 196 635 l 1
 66 635 l 1
66 777 m 1
 66 906 l 1
 196 906 l 1
 196 777 l 1
 66 777 l 1
492 210 m 1
 492 339 l 1
 621 339 l 1
 621 210 l 1
 492 210 l 1
351 351 m 1
 351 480 l 1
 479 480 l 1
 479 351 l 1
 351 351 l 1
209 493 m 1
 209 622 l 1
 338 622 l 1
 338 493 l 1
 209 493 l 1
351 493 m 1
 351 622 l 1
 479 622 l 1
 479 493 l 1
 351 493 l 1
492 493 m 1
 492 622 l 1
 621 622 l 1
 621 493 l 1
 492 493 l 1
66 68 m 1
 66 196 l 1
 196 196 l 1
 196 68 l 1
 66 68 l 1
634 68 m 1
 634 196 l 1
 764 196 l 1
 764 68 l 1
 634 68 l 1
66 919 m 1
 66 1048 l 1
 196 1048 l 1
 196 919 l 1
 66 919 l 1
634 635 m 1
 634 764 l 1
 764 764 l 1
 764 635 l 1
 634 635 l 1
634 777 m 1
 634 906 l 1
 764 906 l 1
 764 777 l 1
 634 777 l 1
209 919 m 1
 209 1048 l 1
 338 1048 l 1
 338 919 l 1
 209 919 l 1
351 919 m 1
 351 1048 l 1
 479 1048 l 1
 479 919 l 1
 351 919 l 1
492 919 m 1
 492 1048 l 1
 621 1048 l 1
 621 919 l 1
 492 919 l 1
EndSplineSet
Validated: 1
EndChar

StartChar: S
Encoding: 83 83 20
Width: 801
VWidth: 1834
Flags: HW
LayerCount: 2
Fore
SplineSet
66 635 m 1
 66 764 l 1
 196 764 l 1
 196 635 l 1
 66 635 l 1
66 777 m 1
 66 906 l 1
 196 906 l 1
 196 777 l 1
 66 777 l 1
209 493 m 1
 209 622 l 1
 338 622 l 1
 338 493 l 1
 209 493 l 1
351 493 m 1
 351 622 l 1
 479 622 l 1
 479 493 l 1
 351 493 l 1
492 493 m 1
 492 622 l 1
 621 622 l 1
 621 493 l 1
 492 493 l 1
66 68 m 1
 66 196 l 1
 196 196 l 1
 196 68 l 1
 66 68 l 1
634 919 m 1
 634 1048 l 1
 764 1048 l 1
 764 919 l 1
 634 919 l 1
209 68 m 1
 209 196 l 1
 338 196 l 1
 338 68 l 1
 209 68 l 1
351 68 m 1
 351 196 l 1
 479 196 l 1
 479 68 l 1
 351 68 l 1
492 68 m 1
 492 196 l 1
 621 196 l 1
 621 68 l 1
 492 68 l 1
634 210 m 1
 634 339 l 1
 764 339 l 1
 764 210 l 1
 634 210 l 1
634 352 m 1
 634 481 l 1
 764 481 l 1
 764 352 l 1
 634 352 l 1
209 919 m 1
 209 1048 l 1
 338 1048 l 1
 338 919 l 1
 209 919 l 1
351 919 m 1
 351 1048 l 1
 479 1048 l 1
 479 919 l 1
 351 919 l 1
492 919 m 1
 492 1048 l 1
 621 1048 l 1
 621 919 l 1
 492 919 l 1
EndSplineSet
Validated: 1
EndChar

StartChar: T
Encoding: 84 84 21
Width: 801
VWidth: 1834
Flags: HW
LayerCount: 2
Fore
SplineSet
351 210 m 1
 351 339 l 1
 479 339 l 1
 479 210 l 1
 351 210 l 1
351 351 m 1
 351 480 l 1
 479 480 l 1
 479 351 l 1
 351 351 l 1
351 493 m 1
 351 622 l 1
 479 622 l 1
 479 493 l 1
 351 493 l 1
351 635 m 1
 351 764 l 1
 479 764 l 1
 479 635 l 1
 351 635 l 1
351 777 m 1
 351 906 l 1
 479 906 l 1
 479 777 l 1
 351 777 l 1
634 919 m 1
 634 1048 l 1
 764 1048 l 1
 764 919 l 1
 634 919 l 1
66 919 m 1
 66 1048 l 1
 196 1048 l 1
 196 919 l 1
 66 919 l 1
351 68 m 1
 351 196 l 1
 479 196 l 1
 479 68 l 1
 351 68 l 1
209 919 m 1
 209 1048 l 1
 338 1048 l 1
 338 919 l 1
 209 919 l 1
351 919 m 1
 351 1048 l 1
 479 1048 l 1
 479 919 l 1
 351 919 l 1
492 919 m 1
 492 1048 l 1
 621 1048 l 1
 621 919 l 1
 492 919 l 1
EndSplineSet
Validated: 1
EndChar

StartChar: U
Encoding: 85 85 22
Width: 801
VWidth: 1834
Flags: HW
LayerCount: 2
Fore
SplineSet
66 210 m 1
 66 339 l 1
 196 339 l 1
 196 210 l 1
 66 210 l 1
66 351 m 1
 66 480 l 1
 196 480 l 1
 196 351 l 1
 66 351 l 1
66 493 m 1
 66 622 l 1
 196 622 l 1
 196 493 l 1
 66 493 l 1
66 635 m 1
 66 764 l 1
 196 764 l 1
 196 635 l 1
 66 635 l 1
66 777 m 1
 66 906 l 1
 196 906 l 1
 196 777 l 1
 66 777 l 1
634 919 m 1
 634 1048 l 1
 764 1048 l 1
 764 919 l 1
 634 919 l 1
66 919 m 1
 66 1048 l 1
 196 1048 l 1
 196 919 l 1
 66 919 l 1
209 68 m 1
 209 196 l 1
 338 196 l 1
 338 68 l 1
 209 68 l 1
351 68 m 1
 351 196 l 1
 479 196 l 1
 479 68 l 1
 351 68 l 1
492 68 m 1
 492 196 l 1
 621 196 l 1
 621 68 l 1
 492 68 l 1
634 210 m 1
 634 339 l 1
 764 339 l 1
 764 210 l 1
 634 210 l 1
634 352 m 1
 634 481 l 1
 764 481 l 1
 764 352 l 1
 634 352 l 1
634 493 m 1
 634 622 l 1
 764 622 l 1
 764 493 l 1
 634 493 l 1
634 635 m 1
 634 764 l 1
 764 764 l 1
 764 635 l 1
 634 635 l 1
634 777 m 1
 634 906 l 1
 764 906 l 1
 764 777 l 1
 634 777 l 1
EndSplineSet
Validated: 1
EndChar

StartChar: V
Encoding: 86 86 23
Width: 801
VWidth: 1834
Flags: HW
LayerCount: 2
Fore
SplineSet
66 351 m 1
 66 480 l 1
 196 480 l 1
 196 351 l 1
 66 351 l 1
66 493 m 1
 66 622 l 1
 196 622 l 1
 196 493 l 1
 66 493 l 1
66 635 m 1
 66 764 l 1
 196 764 l 1
 196 635 l 1
 66 635 l 1
66 777 m 1
 66 906 l 1
 196 906 l 1
 196 777 l 1
 66 777 l 1
209 210 m 1
 209 339 l 1
 338 339 l 1
 338 210 l 1
 209 210 l 1
492 210 m 1
 492 339 l 1
 621 339 l 1
 621 210 l 1
 492 210 l 1
634 919 m 1
 634 1048 l 1
 764 1048 l 1
 764 919 l 1
 634 919 l 1
66 919 m 1
 66 1048 l 1
 196 1048 l 1
 196 919 l 1
 66 919 l 1
351 68 m 1
 351 196 l 1
 479 196 l 1
 479 68 l 1
 351 68 l 1
634 352 m 1
 634 481 l 1
 764 481 l 1
 764 352 l 1
 634 352 l 1
634 493 m 1
 634 622 l 1
 764 622 l 1
 764 493 l 1
 634 493 l 1
634 635 m 1
 634 764 l 1
 764 764 l 1
 764 635 l 1
 634 635 l 1
634 777 m 1
 634 906 l 1
 764 906 l 1
 764 777 l 1
 634 777 l 1
EndSplineSet
Validated: 1
EndChar

StartChar: W
Encoding: 87 87 24
Width: 801
VWidth: 1834
Flags: HW
LayerCount: 2
Fore
SplineSet
66 210 m 1
 66 339 l 1
 196 339 l 1
 196 210 l 1
 66 210 l 1
66 351 m 1
 66 480 l 1
 196 480 l 1
 196 351 l 1
 66 351 l 1
66 493 m 1
 66 622 l 1
 196 622 l 1
 196 493 l 1
 66 493 l 1
66 635 m 1
 66 764 l 1
 196 764 l 1
 196 635 l 1
 66 635 l 1
66 777 m 1
 66 906 l 1
 196 906 l 1
 196 777 l 1
 66 777 l 1
351 210 m 1
 351 339 l 1
 479 339 l 1
 479 210 l 1
 351 210 l 1
351 351 m 1
 351 480 l 1
 479 480 l 1
 479 351 l 1
 351 351 l 1
351 493 m 1
 351 622 l 1
 479 622 l 1
 479 493 l 1
 351 493 l 1
634 919 m 1
 634 1048 l 1
 764 1048 l 1
 764 919 l 1
 634 919 l 1
66 919 m 1
 66 1048 l 1
 196 1048 l 1
 196 919 l 1
 66 919 l 1
209 68 m 1
 209 196 l 1
 338 196 l 1
 338 68 l 1
 209 68 l 1
492 68 m 1
 492 196 l 1
 621 196 l 1
 621 68 l 1
 492 68 l 1
634 210 m 1
 634 339 l 1
 764 339 l 1
 764 210 l 1
 634 210 l 1
634 352 m 1
 634 481 l 1
 764 481 l 1
 764 352 l 1
 634 352 l 1
634 493 m 1
 634 622 l 1
 764 622 l 1
 764 493 l 1
 634 493 l 1
634 635 m 1
 634 764 l 1
 764 764 l 1
 764 635 l 1
 634 635 l 1
634 777 m 1
 634 906 l 1
 764 906 l 1
 764 777 l 1
 634 777 l 1
EndSplineSet
Validated: 1
EndChar

StartChar: X
Encoding: 88 88 25
Width: 801
VWidth: 1834
Flags: HW
LayerCount: 2
Fore
SplineSet
66 210 m 1
 66 339 l 1
 196 339 l 1
 196 210 l 1
 66 210 l 1
66 777 m 1
 66 906 l 1
 196 906 l 1
 196 777 l 1
 66 777 l 1
209 351 m 1
 209 480 l 1
 338 480 l 1
 338 351 l 1
 209 351 l 1
492 351 m 1
 492 480 l 1
 621 480 l 1
 621 351 l 1
 492 351 l 1
351 493 m 1
 351 622 l 1
 479 622 l 1
 479 493 l 1
 351 493 l 1
209 635 m 1
 209 764 l 1
 338 764 l 1
 338 635 l 1
 209 635 l 1
492 635 m 1
 492 764 l 1
 621 764 l 1
 621 635 l 1
 492 635 l 1
66 68 m 1
 66 196 l 1
 196 196 l 1
 196 68 l 1
 66 68 l 1
634 68 m 1
 634 196 l 1
 764 196 l 1
 764 68 l 1
 634 68 l 1
634 919 m 1
 634 1048 l 1
 764 1048 l 1
 764 919 l 1
 634 919 l 1
66 919 m 1
 66 1048 l 1
 196 1048 l 1
 196 919 l 1
 66 919 l 1
634 210 m 1
 634 339 l 1
 764 339 l 1
 764 210 l 1
 634 210 l 1
634 777 m 1
 634 906 l 1
 764 906 l 1
 764 777 l 1
 634 777 l 1
EndSplineSet
Validated: 1
EndChar

StartChar: Y
Encoding: 89 89 26
Width: 801
VWidth: 1834
Flags: HW
LayerCount: 2
Fore
SplineSet
66 635 m 1
 66 764 l 1
 196 764 l 1
 196 635 l 1
 66 635 l 1
66 777 m 1
 66 906 l 1
 196 906 l 1
 196 777 l 1
 66 777 l 1
351 210 m 1
 351 339 l 1
 479 339 l 1
 479 210 l 1
 351 210 l 1
351 351 m 1
 351 480 l 1
 479 480 l 1
 479 351 l 1
 351 351 l 1
209 493 m 1
 209 622 l 1
 338 622 l 1
 338 493 l 1
 209 493 l 1
492 493 m 1
 492 622 l 1
 621 622 l 1
 621 493 l 1
 492 493 l 1
634 919 m 1
 634 1048 l 1
 764 1048 l 1
 764 919 l 1
 634 919 l 1
66 919 m 1
 66 1048 l 1
 196 1048 l 1
 196 919 l 1
 66 919 l 1
351 68 m 1
 351 196 l 1
 479 196 l 1
 479 68 l 1
 351 68 l 1
634 635 m 1
 634 764 l 1
 764 764 l 1
 764 635 l 1
 634 635 l 1
634 777 m 1
 634 906 l 1
 764 906 l 1
 764 777 l 1
 634 777 l 1
EndSplineSet
Validated: 1
EndChar

StartChar: Z
Encoding: 90 90 27
Width: 801
VWidth: 1834
Flags: HW
LayerCount: 2
Fore
SplineSet
66 210 m 1
 66 339 l 1
 196 339 l 1
 196 210 l 1
 66 210 l 1
209 351 m 1
 209 480 l 1
 338 480 l 1
 338 351 l 1
 209 351 l 1
351 493 m 1
 351 622 l 1
 479 622 l 1
 479 493 l 1
 351 493 l 1
492 635 m 1
 492 764 l 1
 621 764 l 1
 621 635 l 1
 492 635 l 1
66 68 m 1
 66 196 l 1
 196 196 l 1
 196 68 l 1
 66 68 l 1
634 68 m 1
 634 196 l 1
 764 196 l 1
 764 68 l 1
 634 68 l 1
634 919 m 1
 634 1048 l 1
 764 1048 l 1
 764 919 l 1
 634 919 l 1
66 919 m 1
 66 1048 l 1
 196 1048 l 1
 196 919 l 1
 66 919 l 1
209 68 m 1
 209 196 l 1
 338 196 l 1
 338 68 l 1
 209 68 l 1
351 68 m 1
 351 196 l 1
 479 196 l 1
 479 68 l 1
 351 68 l 1
492 68 m 1
 492 196 l 1
 621 196 l 1
 621 68 l 1
 492 68 l 1
634 777 m 1
 634 906 l 1
 764 906 l 1
 764 777 l 1
 634 777 l 1
209 919 m 1
 209 1048 l 1
 338 1048 l 1
 338 919 l 1
 209 919 l 1
351 919 m 1
 351 1048 l 1
 479 1048 l 1
 479 919 l 1
 351 919 l 1
492 919 m 1
 492 1048 l 1
 621 1048 l 1
 621 919 l 1
 492 919 l 1
EndSplineSet
Validated: 1
EndChar

StartChar: zero
Encoding: 48 48 28
Width: 801
VWidth: 1834
Flags: HW
LayerCount: 2
Fore
SplineSet
66 210 m 1
 66 339 l 1
 196 339 l 1
 196 210 l 1
 66 210 l 1
66 351 m 1
 66 480 l 1
 196 480 l 1
 196 351 l 1
 66 351 l 1
66 493 m 1
 66 622 l 1
 196 622 l 1
 196 493 l 1
 66 493 l 1
66 635 m 1
 66 764 l 1
 196 764 l 1
 196 635 l 1
 66 635 l 1
66 777 m 1
 66 906 l 1
 196 906 l 1
 196 777 l 1
 66 777 l 1
209 351 m 1
 209 480 l 1
 338 480 l 1
 338 351 l 1
 209 351 l 1
351 493 m 1
 351 622 l 1
 479 622 l 1
 479 493 l 1
 351 493 l 1
492 635 m 1
 492 764 l 1
 621 764 l 1
 621 635 l 1
 492 635 l 1
209 68 m 1
 209 196 l 1
 338 196 l 1
 338 68 l 1
 209 68 l 1
351 68 m 1
 351 196 l 1
 479 196 l 1
 479 68 l 1
 351 68 l 1
492 68 m 1
 492 196 l 1
 621 196 l 1
 621 68 l 1
 492 68 l 1
634 210 m 1
 634 339 l 1
 764 339 l 1
 764 210 l 1
 634 210 l 1
634 352 m 1
 634 481 l 1
 764 481 l 1
 764 352 l 1
 634 352 l 1
634 493 m 1
 634 622 l 1
 764 622 l 1
 764 493 l 1
 634 493 l 1
634 635 m 1
 634 764 l 1
 764 764 l 1
 764 635 l 1
 634 635 l 1
634 777 m 1
 634 906 l 1
 764 906 l 1
 764 777 l 1
 634 777 l 1
209 919 m 1
 209 1048 l 1
 338 1048 l 1
 338 919 l 1
 209 919 l 1
351 919 m 1
 351 1048 l 1
 479 1048 l 1
 479 919 l 1
 351 919 l 1
492 919 m 1
 492 1048 l 1
 621 1048 l 1
 621 919 l 1
 492 919 l 1
EndSplineSet
Validated: 1
EndChar

StartChar: one
Encoding: 49 49 29
Width: 801
VWidth: 1834
Flags: HW
LayerCount: 2
Fore
SplineSet
351 210 m 1
 351 339 l 1
 479 339 l 1
 479 210 l 1
 351 210 l 1
351 351 m 1
 351 480 l 1
 479 480 l 1
 479 351 l 1
 351 351 l 1
351 493 m 1
 351 622 l 1
 479 622 l 1
 479 493 l 1
 351 493 l 1
351 635 m 1
 351 764 l 1
 479 764 l 1
 479 635 l 1
 351 635 l 1
209 777 m 1
 209 906 l 1
 338 906 l 1
 338 777 l 1
 209 777 l 1
351 777 m 1
 351 906 l 1
 479 906 l 1
 479 777 l 1
 351 777 l 1
209 68 m 1
 209 196 l 1
 338 196 l 1
 338 68 l 1
 209 68 l 1
351 68 m 1
 351 196 l 1
 479 196 l 1
 479 68 l 1
 351 68 l 1
492 68 m 1
 492 196 l 1
 621 196 l 1
 621 68 l 1
 492 68 l 1
351 919 m 1
 351 1048 l 1
 479 1048 l 1
 479 919 l 1
 351 919 l 1
EndSplineSet
Validated: 1
EndChar

StartChar: two
Encoding: 50 50 30
Width: 801
VWidth: 1834
Flags: HW
LayerCount: 2
Fore
SplineSet
66 777 m 1
 66 906 l 1
 196 906 l 1
 196 777 l 1
 66 777 l 1
209 210 m 1
 209 339 l 1
 338 339 l 1
 338 210 l 1
 209 210 l 1
351 351 m 1
 351 480 l 1
 479 480 l 1
 479 351 l 1
 351 351 l 1
492 493 m 1
 492 622 l 1
 621 622 l 1
 621 493 l 1
 492 493 l 1
66 68 m 1
 66 196 l 1
 196 196 l 1
 196 68 l 1
 66 68 l 1
634 68 m 1
 634 196 l 1
 764 196 l 1
 764 68 l 1
 634 68 l 1
209 68 m 1
 209 196 l 1
 338 196 l 1
 338 68 l 1
 209 68 l 1
351 68 m 1
 351 196 l 1
 479 196 l 1
 479 68 l 1
 351 68 l 1
492 68 m 1
 492 196 l 1
 621 196 l 1
 621 68 l 1
 492 68 l 1
634 635 m 1
 634 764 l 1
 764 764 l 1
 764 635 l 1
 634 635 l 1
634 777 m 1
 634 906 l 1
 764 906 l 1
 764 777 l 1
 634 777 l 1
209 919 m 1
 209 1048 l 1
 338 1048 l 1
 338 919 l 1
 209 919 l 1
351 919 m 1
 351 1048 l 1
 479 1048 l 1
 479 919 l 1
 351 919 l 1
492 919 m 1
 492 1048 l 1
 621 1048 l 1
 621 919 l 1
 492 919 l 1
EndSplineSet
Validated: 1
EndChar

StartChar: three
Encoding: 51 51 31
Width: 801
VWidth: 1834
Flags: HW
LayerCount: 2
Fore
SplineSet
66 210 m 1
 66 339 l 1
 196 339 l 1
 196 210 l 1
 66 210 l 1
492 493 m 1
 492 622 l 1
 621 622 l 1
 621 493 l 1
 492 493 l 1
351 635 m 1
 351 764 l 1
 479 764 l 1
 479 635 l 1
 351 635 l 1
492 777 m 1
 492 906 l 1
 621 906 l 1
 621 777 l 1
 492 777 l 1
634 919 m 1
 634 1048 l 1
 764 1048 l 1
 764 919 l 1
 634 919 l 1
66 919 m 1
 66 1048 l 1
 196 1048 l 1
 196 919 l 1
 66 919 l 1
209 68 m 1
 209 196 l 1
 338 196 l 1
 338 68 l 1
 209 68 l 1
351 68 m 1
 351 196 l 1
 479 196 l 1
 479 68 l 1
 351 68 l 1
492 68 m 1
 492 196 l 1
 621 196 l 1
 621 68 l 1
 492 68 l 1
634 210 m 1
 634 339 l 1
 764 339 l 1
 764 210 l 1
 634 210 l 1
634 352 m 1
 634 481 l 1
 764 481 l 1
 764 352 l 1
 634 352 l 1
209 919 m 1
 209 1048 l 1
 338 1048 l 1
 338 919 l 1
 209 919 l 1
351 919 m 1
 351 1048 l 1
 479 1048 l 1
 479 919 l 1
 351 919 l 1
492 919 m 1
 492 1048 l 1
 621 1048 l 1
 621 919 l 1
 492 919 l 1
EndSplineSet
Validated: 1
EndChar

StartChar: four
Encoding: 52 52 32
Width: 801
VWidth: 1834
Flags: HW
LayerCount: 2
Fore
SplineSet
66 351 m 1
 66 480 l 1
 196 480 l 1
 196 351 l 1
 66 351 l 1
66 493 m 1
 66 622 l 1
 196 622 l 1
 196 493 l 1
 66 493 l 1
492 210 m 1
 492 339 l 1
 621 339 l 1
 621 210 l 1
 492 210 l 1
209 351 m 1
 209 480 l 1
 338 480 l 1
 338 351 l 1
 209 351 l 1
351 351 m 1
 351 480 l 1
 479 480 l 1
 479 351 l 1
 351 351 l 1
492 351 m 1
 492 480 l 1
 621 480 l 1
 621 351 l 1
 492 351 l 1
492 493 m 1
 492 622 l 1
 621 622 l 1
 621 493 l 1
 492 493 l 1
209 635 m 1
 209 764 l 1
 338 764 l 1
 338 635 l 1
 209 635 l 1
492 635 m 1
 492 764 l 1
 621 764 l 1
 621 635 l 1
 492 635 l 1
351 777 m 1
 351 906 l 1
 479 906 l 1
 479 777 l 1
 351 777 l 1
492 777 m 1
 492 906 l 1
 621 906 l 1
 621 777 l 1
 492 777 l 1
492 68 m 1
 492 196 l 1
 621 196 l 1
 621 68 l 1
 492 68 l 1
634 352 m 1
 634 481 l 1
 764 481 l 1
 764 352 l 1
 634 352 l 1
492 919 m 1
 492 1048 l 1
 621 1048 l 1
 621 919 l 1
 492 919 l 1
EndSplineSet
Validated: 1
EndChar

StartChar: five
Encoding: 53 53 33
Width: 801
VWidth: 1834
Flags: HW
LayerCount: 2
Fore
SplineSet
66 210 m 1
 66 339 l 1
 196 339 l 1
 196 210 l 1
 66 210 l 1
66 635 m 1
 66 764 l 1
 196 764 l 1
 196 635 l 1
 66 635 l 1
66 777 m 1
 66 906 l 1
 196 906 l 1
 196 777 l 1
 66 777 l 1
209 635 m 1
 209 764 l 1
 338 764 l 1
 338 635 l 1
 209 635 l 1
351 635 m 1
 351 764 l 1
 479 764 l 1
 479 635 l 1
 351 635 l 1
492 635 m 1
 492 764 l 1
 621 764 l 1
 621 635 l 1
 492 635 l 1
634 919 m 1
 634 1048 l 1
 764 1048 l 1
 764 919 l 1
 634 919 l 1
66 919 m 1
 66 1048 l 1
 196 1048 l 1
 196 919 l 1
 66 919 l 1
209 68 m 1
 209 196 l 1
 338 196 l 1
 338 68 l 1
 209 68 l 1
351 68 m 1
 351 196 l 1
 479 196 l 1
 479 68 l 1
 351 68 l 1
492 68 m 1
 492 196 l 1
 621 196 l 1
 621 68 l 1
 492 68 l 1
634 210 m 1
 634 339 l 1
 764 339 l 1
 764 210 l 1
 634 210 l 1
634 352 m 1
 634 481 l 1
 764 481 l 1
 764 352 l 1
 634 352 l 1
634 493 m 1
 634 622 l 1
 764 622 l 1
 764 493 l 1
 634 493 l 1
209 919 m 1
 209 1048 l 1
 338 1048 l 1
 338 919 l 1
 209 919 l 1
351 919 m 1
 351 1048 l 1
 479 1048 l 1
 479 919 l 1
 351 919 l 1
492 919 m 1
 492 1048 l 1
 621 1048 l 1
 621 919 l 1
 492 919 l 1
EndSplineSet
Validated: 1
EndChar

StartChar: six
Encoding: 54 54 34
Width: 801
VWidth: 1834
Flags: HW
LayerCount: 2
Fore
SplineSet
66 210 m 1
 66 339 l 1
 196 339 l 1
 196 210 l 1
 66 210 l 1
66 351 m 1
 66 480 l 1
 196 480 l 1
 196 351 l 1
 66 351 l 1
66 493 m 1
 66 622 l 1
 196 622 l 1
 196 493 l 1
 66 493 l 1
66 635 m 1
 66 764 l 1
 196 764 l 1
 196 635 l 1
 66 635 l 1
209 493 m 1
 209 622 l 1
 338 622 l 1
 338 493 l 1
 209 493 l 1
351 493 m 1
 351 622 l 1
 479 622 l 1
 479 493 l 1
 351 493 l 1
492 493 m 1
 492 622 l 1
 621 622 l 1
 621 493 l 1
 492 493 l 1
209 777 m 1
 209 906 l 1
 338 906 l 1
 338 777 l 1
 209 777 l 1
209 68 m 1
 209 196 l 1
 338 196 l 1
 338 68 l 1
 209 68 l 1
351 68 m 1
 351 196 l 1
 479 196 l 1
 479 68 l 1
 351 68 l 1
492 68 m 1
 492 196 l 1
 621 196 l 1
 621 68 l 1
 492 68 l 1
634 210 m 1
 634 339 l 1
 764 339 l 1
 764 210 l 1
 634 210 l 1
634 352 m 1
 634 481 l 1
 764 481 l 1
 764 352 l 1
 634 352 l 1
351 919 m 1
 351 1048 l 1
 479 1048 l 1
 479 919 l 1
 351 919 l 1
492 919 m 1
 492 1048 l 1
 621 1048 l 1
 621 919 l 1
 492 919 l 1
EndSplineSet
Validated: 1
EndChar

StartChar: seven
Encoding: 55 55 35
Width: 801
VWidth: 1834
Flags: HW
LayerCount: 2
Fore
SplineSet
209 210 m 1
 209 339 l 1
 338 339 l 1
 338 210 l 1
 209 210 l 1
209 351 m 1
 209 480 l 1
 338 480 l 1
 338 351 l 1
 209 351 l 1
351 493 m 1
 351 622 l 1
 479 622 l 1
 479 493 l 1
 351 493 l 1
492 635 m 1
 492 764 l 1
 621 764 l 1
 621 635 l 1
 492 635 l 1
634 919 m 1
 634 1048 l 1
 764 1048 l 1
 764 919 l 1
 634 919 l 1
66 919 m 1
 66 1048 l 1
 196 1048 l 1
 196 919 l 1
 66 919 l 1
209 68 m 1
 209 196 l 1
 338 196 l 1
 338 68 l 1
 209 68 l 1
634 777 m 1
 634 906 l 1
 764 906 l 1
 764 777 l 1
 634 777 l 1
209 919 m 1
 209 1048 l 1
 338 1048 l 1
 338 919 l 1
 209 919 l 1
351 919 m 1
 351 1048 l 1
 479 1048 l 1
 479 919 l 1
 351 919 l 1
492 919 m 1
 492 1048 l 1
 621 1048 l 1
 621 919 l 1
 492 919 l 1
EndSplineSet
Validated: 1
EndChar

StartChar: eight
Encoding: 56 56 36
Width: 801
VWidth: 1834
Flags: HW
LayerCount: 2
Fore
SplineSet
66 210 m 1
 66 339 l 1
 196 339 l 1
 196 210 l 1
 66 210 l 1
66 351 m 1
 66 480 l 1
 196 480 l 1
 196 351 l 1
 66 351 l 1
66 635 m 1
 66 764 l 1
 196 764 l 1
 196 635 l 1
 66 635 l 1
66 777 m 1
 66 906 l 1
 196 906 l 1
 196 777 l 1
 66 777 l 1
209 493 m 1
 209 622 l 1
 338 622 l 1
 338 493 l 1
 209 493 l 1
351 493 m 1
 351 622 l 1
 479 622 l 1
 479 493 l 1
 351 493 l 1
492 493 m 1
 492 622 l 1
 621 622 l 1
 621 493 l 1
 492 493 l 1
209 68 m 1
 209 196 l 1
 338 196 l 1
 338 68 l 1
 209 68 l 1
351 68 m 1
 351 196 l 1
 479 196 l 1
 479 68 l 1
 351 68 l 1
492 68 m 1
 492 196 l 1
 621 196 l 1
 621 68 l 1
 492 68 l 1
634 210 m 1
 634 339 l 1
 764 339 l 1
 764 210 l 1
 634 210 l 1
634 352 m 1
 634 481 l 1
 764 481 l 1
 764 352 l 1
 634 352 l 1
634 635 m 1
 634 764 l 1
 764 764 l 1
 764 635 l 1
 634 635 l 1
634 777 m 1
 634 906 l 1
 764 906 l 1
 764 777 l 1
 634 777 l 1
209 919 m 1
 209 1048 l 1
 338 1048 l 1
 338 919 l 1
 209 919 l 1
351 919 m 1
 351 1048 l 1
 479 1048 l 1
 479 919 l 1
 351 919 l 1
492 919 m 1
 492 1048 l 1
 621 1048 l 1
 621 919 l 1
 492 919 l 1
EndSplineSet
Validated: 1
EndChar

StartChar: nine
Encoding: 57 57 37
Width: 801
VWidth: 1834
Flags: HW
LayerCount: 2
Fore
SplineSet
66 635 m 1
 66 764 l 1
 196 764 l 1
 196 635 l 1
 66 635 l 1
66 777 m 1
 66 906 l 1
 196 906 l 1
 196 777 l 1
 66 777 l 1
492 210 m 1
 492 339 l 1
 621 339 l 1
 621 210 l 1
 492 210 l 1
209 493 m 1
 209 622 l 1
 338 622 l 1
 338 493 l 1
 209 493 l 1
351 493 m 1
 351 622 l 1
 479 622 l 1
 479 493 l 1
 351 493 l 1
492 493 m 1
 492 622 l 1
 621 622 l 1
 621 493 l 1
 492 493 l 1
209 68 m 1
 209 196 l 1
 338 196 l 1
 338 68 l 1
 209 68 l 1
351 68 m 1
 351 196 l 1
 479 196 l 1
 479 68 l 1
 351 68 l 1
634 352 m 1
 634 481 l 1
 764 481 l 1
 764 352 l 1
 634 352 l 1
634 493 m 1
 634 622 l 1
 764 622 l 1
 764 493 l 1
 634 493 l 1
634 635 m 1
 634 764 l 1
 764 764 l 1
 764 635 l 1
 634 635 l 1
634 777 m 1
 634 906 l 1
 764 906 l 1
 764 777 l 1
 634 777 l 1
209 919 m 1
 209 1048 l 1
 338 1048 l 1
 338 919 l 1
 209 919 l 1
351 919 m 1
 351 1048 l 1
 479 1048 l 1
 479 919 l 1
 351 919 l 1
492 919 m 1
 492 1048 l 1
 621 1048 l 1
 621 919 l 1
 492 919 l 1
EndSplineSet
Validated: 1
EndChar

StartChar: colon
Encoding: 58 58 38
Width: 801
VWidth: 1834
Flags: HW
LayerCount: 2
Fore
SplineSet
209 210 m 1
 209 339 l 1
 338 339 l 1
 338 210 l 1
 209 210 l 1
351 210 m 1
 351 339 l 1
 479 339 l 1
 479 210 l 1
 351 210 l 1
209 351 m 1
 209 480 l 1
 338 480 l 1
 338 351 l 1
 209 351 l 1
351 351 m 1
 351 480 l 1
 479 480 l 1
 479 351 l 1
 351 351 l 1
209 635 m 1
 209 764 l 1
 338 764 l 1
 338 635 l 1
 209 635 l 1
351 635 m 1
 351 764 l 1
 479 764 l 1
 479 635 l 1
 351 635 l 1
209 777 m 1
 209 906 l 1
 338 906 l 1
 338 777 l 1
 209 777 l 1
351 777 m 1
 351 906 l 1
 479 906 l 1
 479 777 l 1
 351 777 l 1
EndSplineSet
Validated: 1
EndChar

StartChar: uni0080
Encoding: 128 128 40
Width: 801
VWidth: 1834
Flags: HW
LayerCount: 2
Fore
SplineSet
66 351 m 1
 66 480 l 1
 196 480 l 1
 196 351 l 1
 66 351 l 1
209 351 m 1
 209 480 l 1
 338 480 l 1
 338 351 l 1
 209 351 l 1
351 351 m 1
 351 480 l 1
 479 480 l 1
 479 351 l 1
 351 351 l 1
492 351 m 1
 492 480 l 1
 621 480 l 1
 621 351 l 1
 492 351 l 1
209 493 m 1
 209 622 l 1
 338 622 l 1
 338 493 l 1
 209 493 l 1
351 493 m 1
 351 622 l 1
 479 622 l 1
 479 493 l 1
 351 493 l 1
492 493 m 1
 492 622 l 1
 621 622 l 1
 621 493 l 1
 492 493 l 1
209 635 m 1
 209 764 l 1
 338 764 l 1
 338 635 l 1
 209 635 l 1
351 635 m 1
 351 764 l 1
 479 764 l 1
 479 635 l 1
 351 635 l 1
492 635 m 1
 492 764 l 1
 621 764 l 1
 621 635 l 1
 492 635 l 1
209 777 m 1
 209 906 l 1
 338 906 l 1
 338 777 l 1
 209 777 l 1
351 777 m 1
 351 906 l 1
 479 906 l 1
 479 777 l 1
 351 777 l 1
492 777 m 1
 492 906 l 1
 621 906 l 1
 621 777 l 1
 492 777 l 1
351 68 m 1
 351 196 l 1
 479 196 l 1
 479 68 l 1
 351 68 l 1
634 352 m 1
 634 481 l 1
 764 481 l 1
 764 352 l 1
 634 352 l 1
351 919 m 1
 351 1048 l 1
 479 1048 l 1
 479 919 l 1
 351 919 l 1
EndSplineSet
Validated: 1
EndChar

StartChar: uni0081
Encoding: 129 129 41
Width: 801
VWidth: 1834
Flags: HW
LayerCount: 2
Fore
SplineSet
66 351 m 1
 66 480 l 1
 196 480 l 1
 196 351 l 1
 66 351 l 1
66 493 m 1
 66 622 l 1
 196 622 l 1
 196 493 l 1
 66 493 l 1
66 635 m 1
 66 764 l 1
 196 764 l 1
 196 635 l 1
 66 635 l 1
492 351 m 1
 492 480 l 1
 621 480 l 1
 621 351 l 1
 492 351 l 1
209 493 m 1
 209 622 l 1
 338 622 l 1
 338 493 l 1
 209 493 l 1
351 493 m 1
 351 622 l 1
 479 622 l 1
 479 493 l 1
 351 493 l 1
492 493 m 1
 492 622 l 1
 621 622 l 1
 621 493 l 1
 492 493 l 1
492 635 m 1
 492 764 l 1
 621 764 l 1
 621 635 l 1
 492 635 l 1
634 210 m 1
 634 339 l 1
 764 339 l 1
 764 210 l 1
 634 210 l 1
634 352 m 1
 634 481 l 1
 764 481 l 1
 764 352 l 1
 634 352 l 1
634 493 m 1
 634 622 l 1
 764 622 l 1
 764 493 l 1
 634 493 l 1
634 635 m 1
 634 764 l 1
 764 764 l 1
 764 635 l 1
 634 635 l 1
634 777 m 1
 634 906 l 1
 764 906 l 1
 764 777 l 1
 634 777 l 1
EndSplineSet
Validated: 1
EndChar

StartChar: uni0082
Encoding: 130 130 42
Width: 801
VWidth: 1834
Flags: HW
LayerCount: 2
Fore
SplineSet
66 -73 m 1
 66 55 l 1
 196 55 l 1
 196 -73 l 1
 66 -73 l 1
634 -73 m 1
 634 55 l 1
 764 55 l 1
 764 -73 l 1
 634 -73 l 1
209 -73 m 1
 209 55 l 1
 338 55 l 1
 338 -73 l 1
 209 -73 l 1
351 -73 m 1
 351 55 l 1
 479 55 l 1
 479 -73 l 1
 351 -73 l 1
492 -73 m 1
 492 55 l 1
 621 55 l 1
 621 -73 l 1
 492 -73 l 1
66 210 m 1
 66 339 l 1
 196 339 l 1
 196 210 l 1
 66 210 l 1
66 351 m 1
 66 480 l 1
 196 480 l 1
 196 351 l 1
 66 351 l 1
66 493 m 1
 66 622 l 1
 196 622 l 1
 196 493 l 1
 66 493 l 1
66 635 m 1
 66 764 l 1
 196 764 l 1
 196 635 l 1
 66 635 l 1
66 777 m 1
 66 906 l 1
 196 906 l 1
 196 777 l 1
 66 777 l 1
66 68 m 1
 66 196 l 1
 196 196 l 1
 196 68 l 1
 66 68 l 1
634 68 m 1
 634 196 l 1
 764 196 l 1
 764 68 l 1
 634 68 l 1
634 919 m 1
 634 1048 l 1
 764 1048 l 1
 764 919 l 1
 634 919 l 1
66 919 m 1
 66 1048 l 1
 196 1048 l 1
 196 919 l 1
 66 919 l 1
634 210 m 1
 634 339 l 1
 764 339 l 1
 764 210 l 1
 634 210 l 1
634 352 m 1
 634 481 l 1
 764 481 l 1
 764 352 l 1
 634 352 l 1
634 493 m 1
 634 622 l 1
 764 622 l 1
 764 493 l 1
 634 493 l 1
634 635 m 1
 634 764 l 1
 764 764 l 1
 764 635 l 1
 634 635 l 1
634 777 m 1
 634 906 l 1
 764 906 l 1
 764 777 l 1
 634 777 l 1
EndSplineSet
Validated: 1
EndChar

StartChar: uni0083
Encoding: 131 131 43
Width: 801
VWidth: 1834
Flags: HW
LayerCount: 2
Fore
SplineSet
66 -73 m 1
 66 55 l 1
 196 55 l 1
 196 -73 l 1
 66 -73 l 1
634 -73 m 1
 634 55 l 1
 764 55 l 1
 764 -73 l 1
 634 -73 l 1
209 -73 m 1
 209 55 l 1
 338 55 l 1
 338 -73 l 1
 209 -73 l 1
351 -73 m 1
 351 55 l 1
 479 55 l 1
 479 -73 l 1
 351 -73 l 1
492 -73 m 1
 492 55 l 1
 621 55 l 1
 621 -73 l 1
 492 -73 l 1
66 210 m 1
 66 339 l 1
 196 339 l 1
 196 210 l 1
 66 210 l 1
66 351 m 1
 66 480 l 1
 196 480 l 1
 196 351 l 1
 66 351 l 1
66 493 m 1
 66 622 l 1
 196 622 l 1
 196 493 l 1
 66 493 l 1
66 635 m 1
 66 764 l 1
 196 764 l 1
 196 635 l 1
 66 635 l 1
66 777 m 1
 66 906 l 1
 196 906 l 1
 196 777 l 1
 66 777 l 1
209 210 m 1
 209 339 l 1
 338 339 l 1
 338 210 l 1
 209 210 l 1
351 210 m 1
 351 339 l 1
 479 339 l 1
 479 210 l 1
 351 210 l 1
492 210 m 1
 492 339 l 1
 621 339 l 1
 621 210 l 1
 492 210 l 1
209 351 m 1
 209 480 l 1
 338 480 l 1
 338 351 l 1
 209 351 l 1
351 351 m 1
 351 480 l 1
 479 480 l 1
 479 351 l 1
 351 351 l 1
492 351 m 1
 492 480 l 1
 621 480 l 1
 621 351 l 1
 492 351 l 1
209 493 m 1
 209 622 l 1
 338 622 l 1
 338 493 l 1
 209 493 l 1
351 493 m 1
 351 622 l 1
 479 622 l 1
 479 493 l 1
 351 493 l 1
492 493 m 1
 492 622 l 1
 621 622 l 1
 621 493 l 1
 492 493 l 1
66 68 m 1
 66 196 l 1
 196 196 l 1
 196 68 l 1
 66 68 l 1
634 68 m 1
 634 196 l 1
 764 196 l 1
 764 68 l 1
 634 68 l 1
634 919 m 1
 634 1048 l 1
 764 1048 l 1
 764 919 l 1
 634 919 l 1
66 919 m 1
 66 1048 l 1
 196 1048 l 1
 196 919 l 1
 66 919 l 1
209 68 m 1
 209 196 l 1
 338 196 l 1
 338 68 l 1
 209 68 l 1
351 68 m 1
 351 196 l 1
 479 196 l 1
 479 68 l 1
 351 68 l 1
492 68 m 1
 492 196 l 1
 621 196 l 1
 621 68 l 1
 492 68 l 1
634 210 m 1
 634 339 l 1
 764 339 l 1
 764 210 l 1
 634 210 l 1
634 352 m 1
 634 481 l 1
 764 481 l 1
 764 352 l 1
 634 352 l 1
634 493 m 1
 634 622 l 1
 764 622 l 1
 764 493 l 1
 634 493 l 1
634 635 m 1
 634 764 l 1
 764 764 l 1
 764 635 l 1
 634 635 l 1
634 777 m 1
 634 906 l 1
 764 906 l 1
 764 777 l 1
 634 777 l 1
EndSplineSet
Validated: 1
EndChar

StartChar: uni0084
Encoding: 132 132 44
Width: 801
VWidth: 1834
Flags: HW
LayerCount: 2
Fore
SplineSet
66 -73 m 1
 66 55 l 1
 196 55 l 1
 196 -73 l 1
 66 -73 l 1
634 -73 m 1
 634 55 l 1
 764 55 l 1
 764 -73 l 1
 634 -73 l 1
66 210 m 1
 66 339 l 1
 196 339 l 1
 196 210 l 1
 66 210 l 1
66 351 m 1
 66 480 l 1
 196 480 l 1
 196 351 l 1
 66 351 l 1
66 493 m 1
 66 622 l 1
 196 622 l 1
 196 493 l 1
 66 493 l 1
66 635 m 1
 66 764 l 1
 196 764 l 1
 196 635 l 1
 66 635 l 1
66 777 m 1
 66 906 l 1
 196 906 l 1
 196 777 l 1
 66 777 l 1
66 68 m 1
 66 196 l 1
 196 196 l 1
 196 68 l 1
 66 68 l 1
634 68 m 1
 634 196 l 1
 764 196 l 1
 764 68 l 1
 634 68 l 1
634 919 m 1
 634 1048 l 1
 764 1048 l 1
 764 919 l 1
 634 919 l 1
66 919 m 1
 66 1048 l 1
 196 1048 l 1
 196 919 l 1
 66 919 l 1
634 210 m 1
 634 339 l 1
 764 339 l 1
 764 210 l 1
 634 210 l 1
634 352 m 1
 634 481 l 1
 764 481 l 1
 764 352 l 1
 634 352 l 1
634 493 m 1
 634 622 l 1
 764 622 l 1
 764 493 l 1
 634 493 l 1
634 635 m 1
 634 764 l 1
 764 764 l 1
 764 635 l 1
 634 635 l 1
634 777 m 1
 634 906 l 1
 764 906 l 1
 764 777 l 1
 634 777 l 1
209 919 m 1
 209 1048 l 1
 338 1048 l 1
 338 919 l 1
 209 919 l 1
351 919 m 1
 351 1048 l 1
 479 1048 l 1
 479 919 l 1
 351 919 l 1
492 919 m 1
 492 1048 l 1
 621 1048 l 1
 621 919 l 1
 492 919 l 1
EndSplineSet
Validated: 1
EndChar

StartChar: uni0085
Encoding: 133 133 45
Width: 801
VWidth: 1834
Flags: HW
LayerCount: 2
Fore
SplineSet
66 -73 m 1
 66 55 l 1
 196 55 l 1
 196 -73 l 1
 66 -73 l 1
634 -73 m 1
 634 55 l 1
 764 55 l 1
 764 -73 l 1
 634 -73 l 1
209 -73 m 1
 209 55 l 1
 338 55 l 1
 338 -73 l 1
 209 -73 l 1
351 -73 m 1
 351 55 l 1
 479 55 l 1
 479 -73 l 1
 351 -73 l 1
492 -73 m 1
 492 55 l 1
 621 55 l 1
 621 -73 l 1
 492 -73 l 1
66 210 m 1
 66 339 l 1
 196 339 l 1
 196 210 l 1
 66 210 l 1
66 351 m 1
 66 480 l 1
 196 480 l 1
 196 351 l 1
 66 351 l 1
66 493 m 1
 66 622 l 1
 196 622 l 1
 196 493 l 1
 66 493 l 1
66 635 m 1
 66 764 l 1
 196 764 l 1
 196 635 l 1
 66 635 l 1
66 777 m 1
 66 906 l 1
 196 906 l 1
 196 777 l 1
 66 777 l 1
209 210 m 1
 209 339 l 1
 338 339 l 1
 338 210 l 1
 209 210 l 1
351 210 m 1
 351 339 l 1
 479 339 l 1
 479 210 l 1
 351 210 l 1
492 210 m 1
 492 339 l 1
 621 339 l 1
 621 210 l 1
 492 210 l 1
66 68 m 1
 66 196 l 1
 196 196 l 1
 196 68 l 1
 66 68 l 1
634 68 m 1
 634 196 l 1
 764 196 l 1
 764 68 l 1
 634 68 l 1
634 919 m 1
 634 1048 l 1
 764 1048 l 1
 764 919 l 1
 634 919 l 1
66 919 m 1
 66 1048 l 1
 196 1048 l 1
 196 919 l 1
 66 919 l 1
209 68 m 1
 209 196 l 1
 338 196 l 1
 338 68 l 1
 209 68 l 1
351 68 m 1
 351 196 l 1
 479 196 l 1
 479 68 l 1
 351 68 l 1
492 68 m 1
 492 196 l 1
 621 196 l 1
 621 68 l 1
 492 68 l 1
634 210 m 1
 634 339 l 1
 764 339 l 1
 764 210 l 1
 634 210 l 1
634 352 m 1
 634 481 l 1
 764 481 l 1
 764 352 l 1
 634 352 l 1
634 493 m 1
 634 622 l 1
 764 622 l 1
 764 493 l 1
 634 493 l 1
634 635 m 1
 634 764 l 1
 764 764 l 1
 764 635 l 1
 634 635 l 1
634 777 m 1
 634 906 l 1
 764 906 l 1
 764 777 l 1
 634 777 l 1
209 919 m 1
 209 1048 l 1
 338 1048 l 1
 338 919 l 1
 209 919 l 1
351 919 m 1
 351 1048 l 1
 479 1048 l 1
 479 919 l 1
 351 919 l 1
492 919 m 1
 492 1048 l 1
 621 1048 l 1
 621 919 l 1
 492 919 l 1
EndSplineSet
Validated: 1
EndChar

StartChar: uni0086
Encoding: 134 134 46
Width: 801
VWidth: 1834
Flags: HW
LayerCount: 2
Fore
SplineSet
66 -73 m 1
 66 55 l 1
 196 55 l 1
 196 -73 l 1
 66 -73 l 1
634 -73 m 1
 634 55 l 1
 764 55 l 1
 764 -73 l 1
 634 -73 l 1
209 -73 m 1
 209 55 l 1
 338 55 l 1
 338 -73 l 1
 209 -73 l 1
351 -73 m 1
 351 55 l 1
 479 55 l 1
 479 -73 l 1
 351 -73 l 1
492 -73 m 1
 492 55 l 1
 621 55 l 1
 621 -73 l 1
 492 -73 l 1
66 210 m 1
 66 339 l 1
 196 339 l 1
 196 210 l 1
 66 210 l 1
66 351 m 1
 66 480 l 1
 196 480 l 1
 196 351 l 1
 66 351 l 1
66 493 m 1
 66 622 l 1
 196 622 l 1
 196 493 l 1
 66 493 l 1
66 635 m 1
 66 764 l 1
 196 764 l 1
 196 635 l 1
 66 635 l 1
66 777 m 1
 66 906 l 1
 196 906 l 1
 196 777 l 1
 66 777 l 1
209 210 m 1
 209 339 l 1
 338 339 l 1
 338 210 l 1
 209 210 l 1
351 210 m 1
 351 339 l 1
 479 339 l 1
 479 210 l 1
 351 210 l 1
492 210 m 1
 492 339 l 1
 621 339 l 1
 621 210 l 1
 492 210 l 1
209 351 m 1
 209 480 l 1
 338 480 l 1
 338 351 l 1
 209 351 l 1
351 351 m 1
 351 480 l 1
 479 480 l 1
 479 351 l 1
 351 351 l 1
492 351 m 1
 492 480 l 1
 621 480 l 1
 621 351 l 1
 492 351 l 1
209 493 m 1
 209 622 l 1
 338 622 l 1
 338 493 l 1
 209 493 l 1
351 493 m 1
 351 622 l 1
 479 622 l 1
 479 493 l 1
 351 493 l 1
492 493 m 1
 492 622 l 1
 621 622 l 1
 621 493 l 1
 492 493 l 1
209 635 m 1
 209 764 l 1
 338 764 l 1
 338 635 l 1
 209 635 l 1
351 635 m 1
 351 764 l 1
 479 764 l 1
 479 635 l 1
 351 635 l 1
492 635 m 1
 492 764 l 1
 621 764 l 1
 621 635 l 1
 492 635 l 1
209 777 m 1
 209 906 l 1
 338 906 l 1
 338 777 l 1
 209 777 l 1
351 777 m 1
 351 906 l 1
 479 906 l 1
 479 777 l 1
 351 777 l 1
492 777 m 1
 492 906 l 1
 621 906 l 1
 621 777 l 1
 492 777 l 1
66 68 m 1
 66 196 l 1
 196 196 l 1
 196 68 l 1
 66 68 l 1
634 68 m 1
 634 196 l 1
 764 196 l 1
 764 68 l 1
 634 68 l 1
634 919 m 1
 634 1048 l 1
 764 1048 l 1
 764 919 l 1
 634 919 l 1
66 919 m 1
 66 1048 l 1
 196 1048 l 1
 196 919 l 1
 66 919 l 1
209 68 m 1
 209 196 l 1
 338 196 l 1
 338 68 l 1
 209 68 l 1
351 68 m 1
 351 196 l 1
 479 196 l 1
 479 68 l 1
 351 68 l 1
492 68 m 1
 492 196 l 1
 621 196 l 1
 621 68 l 1
 492 68 l 1
634 210 m 1
 634 339 l 1
 764 339 l 1
 764 210 l 1
 634 210 l 1
634 352 m 1
 634 481 l 1
 764 481 l 1
 764 352 l 1
 634 352 l 1
634 493 m 1
 634 622 l 1
 764 622 l 1
 764 493 l 1
 634 493 l 1
634 635 m 1
 634 764 l 1
 764 764 l 1
 764 635 l 1
 634 635 l 1
634 777 m 1
 634 906 l 1
 764 906 l 1
 764 777 l 1
 634 777 l 1
209 919 m 1
 209 1048 l 1
 338 1048 l 1
 338 919 l 1
 209 919 l 1
351 919 m 1
 351 1048 l 1
 479 1048 l 1
 479 919 l 1
 351 919 l 1
492 919 m 1
 492 1048 l 1
 621 1048 l 1
 621 919 l 1
 492 919 l 1
EndSplineSet
Validated: 1
EndChar

StartChar: uni0087
Encoding: 135 135 47
Width: 801
VWidth: 1834
Flags: HW
LayerCount: 2
Fore
SplineSet
66 -73 m 1
 66 55 l 1
 196 55 l 1
 196 -73 l 1
 66 -73 l 1
634 -73 m 1
 634 55 l 1
 764 55 l 1
 764 -73 l 1
 634 -73 l 1
209 -73 m 1
 209 55 l 1
 338 55 l 1
 338 -73 l 1
 209 -73 l 1
351 -73 m 1
 351 55 l 1
 479 55 l 1
 479 -73 l 1
 351 -73 l 1
492 -73 m 1
 492 55 l 1
 621 55 l 1
 621 -73 l 1
 492 -73 l 1
66 210 m 1
 66 339 l 1
 196 339 l 1
 196 210 l 1
 66 210 l 1
66 351 m 1
 66 480 l 1
 196 480 l 1
 196 351 l 1
 66 351 l 1
66 493 m 1
 66 622 l 1
 196 622 l 1
 196 493 l 1
 66 493 l 1
66 635 m 1
 66 764 l 1
 196 764 l 1
 196 635 l 1
 66 635 l 1
66 777 m 1
 66 906 l 1
 196 906 l 1
 196 777 l 1
 66 777 l 1
209 210 m 1
 209 339 l 1
 338 339 l 1
 338 210 l 1
 209 210 l 1
351 210 m 1
 351 339 l 1
 479 339 l 1
 479 210 l 1
 351 210 l 1
492 210 m 1
 492 339 l 1
 621 339 l 1
 621 210 l 1
 492 210 l 1
209 351 m 1
 209 480 l 1
 338 480 l 1
 338 351 l 1
 209 351 l 1
351 351 m 1
 351 480 l 1
 479 480 l 1
 479 351 l 1
 351 351 l 1
492 351 m 1
 492 480 l 1
 621 480 l 1
 621 351 l 1
 492 351 l 1
209 493 m 1
 209 622 l 1
 338 622 l 1
 338 493 l 1
 209 493 l 1
351 493 m 1
 351 622 l 1
 479 622 l 1
 479 493 l 1
 351 493 l 1
492 493 m 1
 492 622 l 1
 621 622 l 1
 621 493 l 1
 492 493 l 1
209 635 m 1
 209 764 l 1
 338 764 l 1
 338 635 l 1
 209 635 l 1
351 635 m 1
 351 764 l 1
 479 764 l 1
 479 635 l 1
 351 635 l 1
492 635 m 1
 492 764 l 1
 621 764 l 1
 621 635 l 1
 492 635 l 1
209 777 m 1
 209 906 l 1
 338 906 l 1
 338 777 l 1
 209 777 l 1
351 777 m 1
 351 906 l 1
 479 906 l 1
 479 777 l 1
 351 777 l 1
492 777 m 1
 492 906 l 1
 621 906 l 1
 621 777 l 1
 492 777 l 1
66 68 m 1
 66 196 l 1
 196 196 l 1
 196 68 l 1
 66 68 l 1
634 68 m 1
 634 196 l 1
 764 196 l 1
 764 68 l 1
 634 68 l 1
209 68 m 1
 209 196 l 1
 338 196 l 1
 338 68 l 1
 209 68 l 1
351 68 m 1
 351 196 l 1
 479 196 l 1
 479 68 l 1
 351 68 l 1
492 68 m 1
 492 196 l 1
 621 196 l 1
 621 68 l 1
 492 68 l 1
634 210 m 1
 634 339 l 1
 764 339 l 1
 764 210 l 1
 634 210 l 1
634 352 m 1
 634 481 l 1
 764 481 l 1
 764 352 l 1
 634 352 l 1
634 493 m 1
 634 622 l 1
 764 622 l 1
 764 493 l 1
 634 493 l 1
634 635 m 1
 634 764 l 1
 764 764 l 1
 764 635 l 1
 634 635 l 1
634 777 m 1
 634 906 l 1
 764 906 l 1
 764 777 l 1
 634 777 l 1
209 919 m 1
 209 1048 l 1
 338 1048 l 1
 338 919 l 1
 209 919 l 1
351 919 m 1
 351 1048 l 1
 479 1048 l 1
 479 919 l 1
 351 919 l 1
492 919 m 1
 492 1048 l 1
 621 1048 l 1
 621 919 l 1
 492 919 l 1
EndSplineSet
Validated: 1
EndChar

StartChar: uni0088
Encoding: 136 136 48
Width: 801
VWidth: 1834
Flags: HW
LayerCount: 2
Fore
SplineSet
66 -73 m 1
 66 55 l 1
 196 55 l 1
 196 -73 l 1
 66 -73 l 1
634 -73 m 1
 634 55 l 1
 764 55 l 1
 764 -73 l 1
 634 -73 l 1
209 -73 m 1
 209 55 l 1
 338 55 l 1
 338 -73 l 1
 209 -73 l 1
351 -73 m 1
 351 55 l 1
 479 55 l 1
 479 -73 l 1
 351 -73 l 1
492 -73 m 1
 492 55 l 1
 621 55 l 1
 621 -73 l 1
 492 -73 l 1
66 210 m 1
 66 339 l 1
 196 339 l 1
 196 210 l 1
 66 210 l 1
66 351 m 1
 66 480 l 1
 196 480 l 1
 196 351 l 1
 66 351 l 1
66 493 m 1
 66 622 l 1
 196 622 l 1
 196 493 l 1
 66 493 l 1
66 635 m 1
 66 764 l 1
 196 764 l 1
 196 635 l 1
 66 635 l 1
66 777 m 1
 66 906 l 1
 196 906 l 1
 196 777 l 1
 66 777 l 1
209 210 m 1
 209 339 l 1
 338 339 l 1
 338 210 l 1
 209 210 l 1
351 210 m 1
 351 339 l 1
 479 339 l 1
 479 210 l 1
 351 210 l 1
492 210 m 1
 492 339 l 1
 621 339 l 1
 621 210 l 1
 492 210 l 1
209 351 m 1
 209 480 l 1
 338 480 l 1
 338 351 l 1
 209 351 l 1
351 351 m 1
 351 480 l 1
 479 480 l 1
 479 351 l 1
 351 351 l 1
492 351 m 1
 492 480 l 1
 621 480 l 1
 621 351 l 1
 492 351 l 1
209 777 m 1
 209 906 l 1
 338 906 l 1
 338 777 l 1
 209 777 l 1
492 777 m 1
 492 906 l 1
 621 906 l 1
 621 777 l 1
 492 777 l 1
66 68 m 1
 66 196 l 1
 196 196 l 1
 196 68 l 1
 66 68 l 1
634 68 m 1
 634 196 l 1
 764 196 l 1
 764 68 l 1
 634 68 l 1
209 68 m 1
 209 196 l 1
 338 196 l 1
 338 68 l 1
 209 68 l 1
351 68 m 1
 351 196 l 1
 479 196 l 1
 479 68 l 1
 351 68 l 1
492 68 m 1
 492 196 l 1
 621 196 l 1
 621 68 l 1
 492 68 l 1
634 210 m 1
 634 339 l 1
 764 339 l 1
 764 210 l 1
 634 210 l 1
634 352 m 1
 634 481 l 1
 764 481 l 1
 764 352 l 1
 634 352 l 1
634 493 m 1
 634 622 l 1
 764 622 l 1
 764 493 l 1
 634 493 l 1
634 635 m 1
 634 764 l 1
 764 764 l 1
 764 635 l 1
 634 635 l 1
634 777 m 1
 634 906 l 1
 764 906 l 1
 764 777 l 1
 634 777 l 1
209 919 m 1
 209 1048 l 1
 338 1048 l 1
 338 919 l 1
 209 919 l 1
351 919 m 1
 351 1048 l 1
 479 1048 l 1
 479 919 l 1
 351 919 l 1
492 919 m 1
 492 1048 l 1
 621 1048 l 1
 621 919 l 1
 492 919 l 1
EndSplineSet
Validated: 1
EndChar

StartChar: uni0089
Encoding: 137 137 49
Width: 801
VWidth: 1834
Flags: HW
LayerCount: 2
Fore
SplineSet
66 -73 m 1
 66 55 l 1
 196 55 l 1
 196 -73 l 1
 66 -73 l 1
634 -73 m 1
 634 55 l 1
 764 55 l 1
 764 -73 l 1
 634 -73 l 1
209 -73 m 1
 209 55 l 1
 338 55 l 1
 338 -73 l 1
 209 -73 l 1
351 -73 m 1
 351 55 l 1
 479 55 l 1
 479 -73 l 1
 351 -73 l 1
492 -73 m 1
 492 55 l 1
 621 55 l 1
 621 -73 l 1
 492 -73 l 1
66 210 m 1
 66 339 l 1
 196 339 l 1
 196 210 l 1
 66 210 l 1
66 351 m 1
 66 480 l 1
 196 480 l 1
 196 351 l 1
 66 351 l 1
66 493 m 1
 66 622 l 1
 196 622 l 1
 196 493 l 1
 66 493 l 1
66 635 m 1
 66 764 l 1
 196 764 l 1
 196 635 l 1
 66 635 l 1
66 777 m 1
 66 906 l 1
 196 906 l 1
 196 777 l 1
 66 777 l 1
209 777 m 1
 209 906 l 1
 338 906 l 1
 338 777 l 1
 209 777 l 1
492 777 m 1
 492 906 l 1
 621 906 l 1
 621 777 l 1
 492 777 l 1
66 68 m 1
 66 196 l 1
 196 196 l 1
 196 68 l 1
 66 68 l 1
634 68 m 1
 634 196 l 1
 764 196 l 1
 764 68 l 1
 634 68 l 1
634 210 m 1
 634 339 l 1
 764 339 l 1
 764 210 l 1
 634 210 l 1
634 352 m 1
 634 481 l 1
 764 481 l 1
 764 352 l 1
 634 352 l 1
634 493 m 1
 634 622 l 1
 764 622 l 1
 764 493 l 1
 634 493 l 1
634 635 m 1
 634 764 l 1
 764 764 l 1
 764 635 l 1
 634 635 l 1
634 777 m 1
 634 906 l 1
 764 906 l 1
 764 777 l 1
 634 777 l 1
209 919 m 1
 209 1048 l 1
 338 1048 l 1
 338 919 l 1
 209 919 l 1
351 919 m 1
 351 1048 l 1
 479 1048 l 1
 479 919 l 1
 351 919 l 1
492 919 m 1
 492 1048 l 1
 621 1048 l 1
 621 919 l 1
 492 919 l 1
EndSplineSet
Validated: 1
EndChar

StartChar: uni008A
Encoding: 138 138 50
Width: 801
VWidth: 1834
Flags: HW
LayerCount: 2
Fore
SplineSet
66 351 m 1
 66 480 l 1
 196 480 l 1
 196 351 l 1
 66 351 l 1
66 493 m 1
 66 622 l 1
 196 622 l 1
 196 493 l 1
 66 493 l 1
66 635 m 1
 66 764 l 1
 196 764 l 1
 196 635 l 1
 66 635 l 1
209 210 m 1
 209 339 l 1
 338 339 l 1
 338 210 l 1
 209 210 l 1
351 210 m 1
 351 339 l 1
 479 339 l 1
 479 210 l 1
 351 210 l 1
492 210 m 1
 492 339 l 1
 621 339 l 1
 621 210 l 1
 492 210 l 1
209 777 m 1
 209 906 l 1
 338 906 l 1
 338 777 l 1
 209 777 l 1
351 777 m 1
 351 906 l 1
 479 906 l 1
 479 777 l 1
 351 777 l 1
492 777 m 1
 492 906 l 1
 621 906 l 1
 621 777 l 1
 492 777 l 1
634 352 m 1
 634 481 l 1
 764 481 l 1
 764 352 l 1
 634 352 l 1
634 493 m 1
 634 622 l 1
 764 622 l 1
 764 493 l 1
 634 493 l 1
634 635 m 1
 634 764 l 1
 764 764 l 1
 764 635 l 1
 634 635 l 1
EndSplineSet
Validated: 1
EndChar

StartChar: uni008B
Encoding: 139 139 51
Width: 801
VWidth: 1834
Flags: HW
LayerCount: 2
Fore
SplineSet
66 351 m 1
 66 480 l 1
 196 480 l 1
 196 351 l 1
 66 351 l 1
66 493 m 1
 66 622 l 1
 196 622 l 1
 196 493 l 1
 66 493 l 1
66 635 m 1
 66 764 l 1
 196 764 l 1
 196 635 l 1
 66 635 l 1
209 210 m 1
 209 339 l 1
 338 339 l 1
 338 210 l 1
 209 210 l 1
351 210 m 1
 351 339 l 1
 479 339 l 1
 479 210 l 1
 351 210 l 1
492 210 m 1
 492 339 l 1
 621 339 l 1
 621 210 l 1
 492 210 l 1
209 351 m 1
 209 480 l 1
 338 480 l 1
 338 351 l 1
 209 351 l 1
351 351 m 1
 351 480 l 1
 479 480 l 1
 479 351 l 1
 351 351 l 1
492 351 m 1
 492 480 l 1
 621 480 l 1
 621 351 l 1
 492 351 l 1
209 493 m 1
 209 622 l 1
 338 622 l 1
 338 493 l 1
 209 493 l 1
351 493 m 1
 351 622 l 1
 479 622 l 1
 479 493 l 1
 351 493 l 1
492 493 m 1
 492 622 l 1
 621 622 l 1
 621 493 l 1
 492 493 l 1
209 635 m 1
 209 764 l 1
 338 764 l 1
 338 635 l 1
 209 635 l 1
351 635 m 1
 351 764 l 1
 479 764 l 1
 479 635 l 1
 351 635 l 1
492 635 m 1
 492 764 l 1
 621 764 l 1
 621 635 l 1
 492 635 l 1
209 777 m 1
 209 906 l 1
 338 906 l 1
 338 777 l 1
 209 777 l 1
351 777 m 1
 351 906 l 1
 479 906 l 1
 479 777 l 1
 351 777 l 1
492 777 m 1
 492 906 l 1
 621 906 l 1
 621 777 l 1
 492 777 l 1
634 352 m 1
 634 481 l 1
 764 481 l 1
 764 352 l 1
 634 352 l 1
634 493 m 1
 634 622 l 1
 764 622 l 1
 764 493 l 1
 634 493 l 1
634 635 m 1
 634 764 l 1
 764 764 l 1
 764 635 l 1
 634 635 l 1
EndSplineSet
Validated: 1
EndChar

StartChar: s
Encoding: 115 115 52
Width: 801
VWidth: 1834
Flags: HW
LayerCount: 2
Fore
SplineSet
66 493 m 1
 66 622 l 1
 196 622 l 1
 196 493 l 1
 66 493 l 1
209 351 m 1
 209 480 l 1
 338 480 l 1
 338 351 l 1
 209 351 l 1
351 351 m 1
 351 480 l 1
 479 480 l 1
 479 351 l 1
 351 351 l 1
492 351 m 1
 492 480 l 1
 621 480 l 1
 621 351 l 1
 492 351 l 1
209 635 m 1
 209 764 l 1
 338 764 l 1
 338 635 l 1
 209 635 l 1
351 635 m 1
 351 764 l 1
 479 764 l 1
 479 635 l 1
 351 635 l 1
492 635 m 1
 492 764 l 1
 621 764 l 1
 621 635 l 1
 492 635 l 1
66 68 m 1
 66 196 l 1
 196 196 l 1
 196 68 l 1
 66 68 l 1
209 68 m 1
 209 196 l 1
 338 196 l 1
 338 68 l 1
 209 68 l 1
351 68 m 1
 351 196 l 1
 479 196 l 1
 479 68 l 1
 351 68 l 1
492 68 m 1
 492 196 l 1
 621 196 l 1
 621 68 l 1
 492 68 l 1
634 210 m 1
 634 339 l 1
 764 339 l 1
 764 210 l 1
 634 210 l 1
EndSplineSet
Validated: 1
EndChar

StartChar: hyphen
Encoding: 45 45 53
Width: 801
VWidth: 1834
Flags: HW
LayerCount: 2
Fore
SplineSet
66 493 m 1
 66 622 l 1
 196 622 l 1
 196 493 l 1
 66 493 l 1
209 493 m 1
 209 622 l 1
 338 622 l 1
 338 493 l 1
 209 493 l 1
351 493 m 1
 351 622 l 1
 479 622 l 1
 479 493 l 1
 351 493 l 1
492 493 m 1
 492 622 l 1
 621 622 l 1
 621 493 l 1
 492 493 l 1
634 493 m 1
 634 622 l 1
 764 622 l 1
 764 493 l 1
 634 493 l 1
EndSplineSet
Validated: 1
EndChar

StartChar: uni007F
Encoding: 127 127 54
Width: 801
VWidth: 1834
Flags: HW
LayerCount: 2
Fore
SplineSet
66 493 m 1
 66 622 l 1
 196 622 l 1
 196 493 l 1
 66 493 l 1
351 210 m 1
 351 339 l 1
 479 339 l 1
 479 210 l 1
 351 210 l 1
209 351 m 1
 209 480 l 1
 338 480 l 1
 338 351 l 1
 209 351 l 1
209 493 m 1
 209 622 l 1
 338 622 l 1
 338 493 l 1
 209 493 l 1
351 493 m 1
 351 622 l 1
 479 622 l 1
 479 493 l 1
 351 493 l 1
492 493 m 1
 492 622 l 1
 621 622 l 1
 621 493 l 1
 492 493 l 1
209 635 m 1
 209 764 l 1
 338 764 l 1
 338 635 l 1
 209 635 l 1
351 777 m 1
 351 906 l 1
 479 906 l 1
 479 777 l 1
 351 777 l 1
634 493 m 1
 634 622 l 1
 764 622 l 1
 764 493 l 1
 634 493 l 1
EndSplineSet
Validated: 1
EndChar

StartChar: asciicircum
Encoding: 94 94 55
Width: 801
VWidth: 1834
Flags: HW
LayerCount: 2
Fore
SplineSet
66 635 m 1
 66 764 l 1
 196 764 l 1
 196 635 l 1
 66 635 l 1
209 777 m 1
 209 906 l 1
 338 906 l 1
 338 777 l 1
 209 777 l 1
492 777 m 1
 492 906 l 1
 621 906 l 1
 621 777 l 1
 492 777 l 1
634 635 m 1
 634 764 l 1
 764 764 l 1
 764 635 l 1
 634 635 l 1
351 919 m 1
 351 1048 l 1
 479 1048 l 1
 479 919 l 1
 351 919 l 1
EndSplineSet
Validated: 1
EndChar

StartChar: numbersign
Encoding: 35 35 56
Width: 801
VWidth: 1834
Flags: HW
LayerCount: 2
Fore
SplineSet
66 351 m 1
 66 480 l 1
 196 480 l 1
 196 351 l 1
 66 351 l 1
66 635 m 1
 66 764 l 1
 196 764 l 1
 196 635 l 1
 66 635 l 1
209 210 m 1
 209 339 l 1
 338 339 l 1
 338 210 l 1
 209 210 l 1
492 210 m 1
 492 339 l 1
 621 339 l 1
 621 210 l 1
 492 210 l 1
209 351 m 1
 209 480 l 1
 338 480 l 1
 338 351 l 1
 209 351 l 1
351 351 m 1
 351 480 l 1
 479 480 l 1
 479 351 l 1
 351 351 l 1
492 351 m 1
 492 480 l 1
 621 480 l 1
 621 351 l 1
 492 351 l 1
209 493 m 1
 209 622 l 1
 338 622 l 1
 338 493 l 1
 209 493 l 1
492 493 m 1
 492 622 l 1
 621 622 l 1
 621 493 l 1
 492 493 l 1
209 635 m 1
 209 764 l 1
 338 764 l 1
 338 635 l 1
 209 635 l 1
351 635 m 1
 351 764 l 1
 479 764 l 1
 479 635 l 1
 351 635 l 1
492 635 m 1
 492 764 l 1
 621 764 l 1
 621 635 l 1
 492 635 l 1
209 777 m 1
 209 906 l 1
 338 906 l 1
 338 777 l 1
 209 777 l 1
492 777 m 1
 492 906 l 1
 621 906 l 1
 621 777 l 1
 492 777 l 1
209 68 m 1
 209 196 l 1
 338 196 l 1
 338 68 l 1
 209 68 l 1
492 68 m 1
 492 196 l 1
 621 196 l 1
 621 68 l 1
 492 68 l 1
634 352 m 1
 634 481 l 1
 764 481 l 1
 764 352 l 1
 634 352 l 1
634 635 m 1
 634 764 l 1
 764 764 l 1
 764 635 l 1
 634 635 l 1
209 919 m 1
 209 1048 l 1
 338 1048 l 1
 338 919 l 1
 209 919 l 1
492 919 m 1
 492 1048 l 1
 621 1048 l 1
 621 919 l 1
 492 919 l 1
EndSplineSet
Validated: 1
EndChar

StartChar: x
Encoding: 120 120 57
Width: 801
VWidth: 1834
Flags: HW
LayerCount: 2
Fore
SplineSet
66 635 m 1
 66 764 l 1
 196 764 l 1
 196 635 l 1
 66 635 l 1
209 210 m 1
 209 339 l 1
 338 339 l 1
 338 210 l 1
 209 210 l 1
492 210 m 1
 492 339 l 1
 621 339 l 1
 621 210 l 1
 492 210 l 1
351 351 m 1
 351 480 l 1
 479 480 l 1
 479 351 l 1
 351 351 l 1
209 493 m 1
 209 622 l 1
 338 622 l 1
 338 493 l 1
 209 493 l 1
492 493 m 1
 492 622 l 1
 621 622 l 1
 621 493 l 1
 492 493 l 1
66 68 m 1
 66 196 l 1
 196 196 l 1
 196 68 l 1
 66 68 l 1
634 68 m 1
 634 196 l 1
 764 196 l 1
 764 68 l 1
 634 68 l 1
634 635 m 1
 634 764 l 1
 764 764 l 1
 764 635 l 1
 634 635 l 1
EndSplineSet
Validated: 1
EndChar

StartChar: percent
Encoding: 37 37 58
Width: 801
VWidth: 1834
Flags: HW
LayerCount: 2
Fore
SplineSet
66 210 m 1
 66 339 l 1
 196 339 l 1
 196 210 l 1
 66 210 l 1
66 777 m 1
 66 906 l 1
 196 906 l 1
 196 777 l 1
 66 777 l 1
492 210 m 1
 492 339 l 1
 621 339 l 1
 621 210 l 1
 492 210 l 1
209 351 m 1
 209 480 l 1
 338 480 l 1
 338 351 l 1
 209 351 l 1
351 493 m 1
 351 622 l 1
 479 622 l 1
 479 493 l 1
 351 493 l 1
492 635 m 1
 492 764 l 1
 621 764 l 1
 621 635 l 1
 492 635 l 1
209 777 m 1
 209 906 l 1
 338 906 l 1
 338 777 l 1
 209 777 l 1
634 68 m 1
 634 196 l 1
 764 196 l 1
 764 68 l 1
 634 68 l 1
66 919 m 1
 66 1048 l 1
 196 1048 l 1
 196 919 l 1
 66 919 l 1
492 68 m 1
 492 196 l 1
 621 196 l 1
 621 68 l 1
 492 68 l 1
634 210 m 1
 634 339 l 1
 764 339 l 1
 764 210 l 1
 634 210 l 1
634 777 m 1
 634 906 l 1
 764 906 l 1
 764 777 l 1
 634 777 l 1
209 919 m 1
 209 1048 l 1
 338 1048 l 1
 338 919 l 1
 209 919 l 1
EndSplineSet
Validated: 1
EndChar

StartChar: e
Encoding: 101 101 59
Width: 801
VWidth: 1834
Flags: HW
LayerCount: 2
Fore
SplineSet
66 210 m 1
 66 339 l 1
 196 339 l 1
 196 210 l 1
 66 210 l 1
66 351 m 1
 66 480 l 1
 196 480 l 1
 196 351 l 1
 66 351 l 1
66 493 m 1
 66 622 l 1
 196 622 l 1
 196 493 l 1
 66 493 l 1
209 351 m 1
 209 480 l 1
 338 480 l 1
 338 351 l 1
 209 351 l 1
351 351 m 1
 351 480 l 1
 479 480 l 1
 479 351 l 1
 351 351 l 1
492 351 m 1
 492 480 l 1
 621 480 l 1
 621 351 l 1
 492 351 l 1
209 635 m 1
 209 764 l 1
 338 764 l 1
 338 635 l 1
 209 635 l 1
351 635 m 1
 351 764 l 1
 479 764 l 1
 479 635 l 1
 351 635 l 1
492 635 m 1
 492 764 l 1
 621 764 l 1
 621 635 l 1
 492 635 l 1
209 68 m 1
 209 196 l 1
 338 196 l 1
 338 68 l 1
 209 68 l 1
351 68 m 1
 351 196 l 1
 479 196 l 1
 479 68 l 1
 351 68 l 1
492 68 m 1
 492 196 l 1
 621 196 l 1
 621 68 l 1
 492 68 l 1
634 352 m 1
 634 481 l 1
 764 481 l 1
 764 352 l 1
 634 352 l 1
634 493 m 1
 634 622 l 1
 764 622 l 1
 764 493 l 1
 634 493 l 1
EndSplineSet
Validated: 1
EndChar

StartChar: c
Encoding: 99 99 60
Width: 801
VWidth: 1834
Flags: HW
LayerCount: 2
Fore
SplineSet
66 210 m 1
 66 339 l 1
 196 339 l 1
 196 210 l 1
 66 210 l 1
66 351 m 1
 66 480 l 1
 196 480 l 1
 196 351 l 1
 66 351 l 1
66 493 m 1
 66 622 l 1
 196 622 l 1
 196 493 l 1
 66 493 l 1
209 635 m 1
 209 764 l 1
 338 764 l 1
 338 635 l 1
 209 635 l 1
351 635 m 1
 351 764 l 1
 479 764 l 1
 479 635 l 1
 351 635 l 1
492 635 m 1
 492 764 l 1
 621 764 l 1
 621 635 l 1
 492 635 l 1
209 68 m 1
 209 196 l 1
 338 196 l 1
 338 68 l 1
 209 68 l 1
351 68 m 1
 351 196 l 1
 479 196 l 1
 479 68 l 1
 351 68 l 1
492 68 m 1
 492 196 l 1
 621 196 l 1
 621 68 l 1
 492 68 l 1
634 210 m 1
 634 339 l 1
 764 339 l 1
 764 210 l 1
 634 210 l 1
EndSplineSet
Validated: 1
EndChar

StartChar: period
Encoding: 46 46 61
Width: 801
VWidth: 1834
Flags: HW
LayerCount: 2
Fore
SplineSet
209 210 m 1
 209 339 l 1
 338 339 l 1
 338 210 l 1
 209 210 l 1
351 210 m 1
 351 339 l 1
 479 339 l 1
 479 210 l 1
 351 210 l 1
209 68 m 1
 209 196 l 1
 338 196 l 1
 338 68 l 1
 209 68 l 1
351 68 m 1
 351 196 l 1
 479 196 l 1
 479 68 l 1
 351 68 l 1
EndSplineSet
Validated: 1
EndChar

StartChar: asciitilde
Encoding: 126 126 62
Width: 801
VWidth: 1834
Flags: HW
LayerCount: 2
Fore
SplineSet
66 493 m 1
 66 622 l 1
 196 622 l 1
 196 493 l 1
 66 493 l 1
351 210 m 1
 351 339 l 1
 479 339 l 1
 479 210 l 1
 351 210 l 1
492 351 m 1
 492 480 l 1
 621 480 l 1
 621 351 l 1
 492 351 l 1
209 493 m 1
 209 622 l 1
 338 622 l 1
 338 493 l 1
 209 493 l 1
351 493 m 1
 351 622 l 1
 479 622 l 1
 479 493 l 1
 351 493 l 1
492 493 m 1
 492 622 l 1
 621 622 l 1
 621 493 l 1
 492 493 l 1
492 635 m 1
 492 764 l 1
 621 764 l 1
 621 635 l 1
 492 635 l 1
351 777 m 1
 351 906 l 1
 479 906 l 1
 479 777 l 1
 351 777 l 1
634 493 m 1
 634 622 l 1
 764 622 l 1
 764 493 l 1
 634 493 l 1
EndSplineSet
EndChar

StartChar: uni008C
Encoding: 140 140 63
Width: 801
VWidth: 1834
Flags: HW
LayerCount: 2
Fore
SplineSet
66 351 m 1
 66 480 l 1
 196 480 l 1
 196 351 l 1
 66 351 l 1
66 493 m 1
 66 622 l 1
 196 622 l 1
 196 493 l 1
 66 493 l 1
66 635 m 1
 66 764 l 1
 196 764 l 1
 196 635 l 1
 66 635 l 1
66 777 m 1
 66 906 l 1
 196 906 l 1
 196 777 l 1
 66 777 l 1
351 351 m 1
 351 480 l 1
 479 480 l 1
 479 351 l 1
 351 351 l 1
351 493 m 1
 351 622 l 1
 479 622 l 1
 479 493 l 1
 351 493 l 1
209 635 m 1
 209 764 l 1
 338 764 l 1
 338 635 l 1
 209 635 l 1
351 635 m 1
 351 764 l 1
 479 764 l 1
 479 635 l 1
 351 635 l 1
351 777 m 1
 351 906 l 1
 479 906 l 1
 479 777 l 1
 351 777 l 1
209 919 m 1
 209 1048 l 1
 338 1048 l 1
 338 919 l 1
 209 919 l 1
EndSplineSet
EndChar

StartChar: uni008D
Encoding: 141 141 64
Width: 801
VWidth: 1834
Flags: HW
LayerCount: 2
Fore
SplineSet
66 210 m 1
 66 339 l 1
 196 339 l 1
 196 210 l 1
 66 210 l 1
66 351 m 1
 66 480 l 1
 196 480 l 1
 196 351 l 1
 66 351 l 1
66 493 m 1
 66 622 l 1
 196 622 l 1
 196 493 l 1
 66 493 l 1
66 635 m 1
 66 764 l 1
 196 764 l 1
 196 635 l 1
 66 635 l 1
209 351 m 1
 209 480 l 1
 338 480 l 1
 338 351 l 1
 209 351 l 1
351 351 m 1
 351 480 l 1
 479 480 l 1
 479 351 l 1
 351 351 l 1
351 493 m 1
 351 622 l 1
 479 622 l 1
 479 493 l 1
 351 493 l 1
209 635 m 1
 209 764 l 1
 338 764 l 1
 338 635 l 1
 209 635 l 1
351 635 m 1
 351 764 l 1
 479 764 l 1
 479 635 l 1
 351 635 l 1
66 68 m 1
 66 196 l 1
 196 196 l 1
 196 68 l 1
 66 68 l 1
EndSplineSet
EndChar

StartChar: d
Encoding: 100 100 65
Width: 801
VWidth: 1834
Flags: HW
LayerCount: 2
Fore
SplineSet
66 210 m 1
 66 339 l 1
 196 339 l 1
 196 210 l 1
 66 210 l 1
66 351 m 1
 66 480 l 1
 196 480 l 1
 196 351 l 1
 66 351 l 1
66 493 m 1
 66 622 l 1
 196 622 l 1
 196 493 l 1
 66 493 l 1
492 493 m 1
 492 622 l 1
 621 622 l 1
 621 493 l 1
 492 493 l 1
209 635 m 1
 209 764 l 1
 338 764 l 1
 338 635 l 1
 209 635 l 1
351 635 m 1
 351 764 l 1
 479 764 l 1
 479 635 l 1
 351 635 l 1
634 68 m 1
 634 196 l 1
 764 196 l 1
 764 68 l 1
 634 68 l 1
634 919 m 1
 634 1048 l 1
 764 1048 l 1
 764 919 l 1
 634 919 l 1
209 68 m 1
 209 196 l 1
 338 196 l 1
 338 68 l 1
 209 68 l 1
351 68 m 1
 351 196 l 1
 479 196 l 1
 479 68 l 1
 351 68 l 1
492 68 m 1
 492 196 l 1
 621 196 l 1
 621 68 l 1
 492 68 l 1
634 210 m 1
 634 339 l 1
 764 339 l 1
 764 210 l 1
 634 210 l 1
634 352 m 1
 634 481 l 1
 764 481 l 1
 764 352 l 1
 634 352 l 1
634 493 m 1
 634 622 l 1
 764 622 l 1
 764 493 l 1
 634 493 l 1
634 635 m 1
 634 764 l 1
 764 764 l 1
 764 635 l 1
 634 635 l 1
634 777 m 1
 634 906 l 1
 764 906 l 1
 764 777 l 1
 634 777 l 1
EndSplineSet
EndChar

StartChar: m
Encoding: 109 109 66
Width: 801
VWidth: 1834
Flags: HW
LayerCount: 2
Fore
SplineSet
66 210 m 1
 66 339 l 1
 196 339 l 1
 196 210 l 1
 66 210 l 1
66 351 m 1
 66 480 l 1
 196 480 l 1
 196 351 l 1
 66 351 l 1
66 493 m 1
 66 622 l 1
 196 622 l 1
 196 493 l 1
 66 493 l 1
66 635 m 1
 66 764 l 1
 196 764 l 1
 196 635 l 1
 66 635 l 1
351 351 m 1
 351 480 l 1
 479 480 l 1
 479 351 l 1
 351 351 l 1
351 493 m 1
 351 622 l 1
 479 622 l 1
 479 493 l 1
 351 493 l 1
209 635 m 1
 209 764 l 1
 338 764 l 1
 338 635 l 1
 209 635 l 1
492 635 m 1
 492 764 l 1
 621 764 l 1
 621 635 l 1
 492 635 l 1
66 68 m 1
 66 196 l 1
 196 196 l 1
 196 68 l 1
 66 68 l 1
634 68 m 1
 634 196 l 1
 764 196 l 1
 764 68 l 1
 634 68 l 1
634 210 m 1
 634 339 l 1
 764 339 l 1
 764 210 l 1
 634 210 l 1
634 352 m 1
 634 481 l 1
 764 481 l 1
 764 352 l 1
 634 352 l 1
634 493 m 1
 634 622 l 1
 764 622 l 1
 764 493 l 1
 634 493 l 1
EndSplineSet
EndChar

StartChar: bracketleft
Encoding: 91 91 67
Width: 801
VWidth: 1834
Flags: HW
LayerCount: 2
Fore
SplineSet
209 210 m 1
 209 339 l 1
 338 339 l 1
 338 210 l 1
 209 210 l 1
209 351 m 1
 209 480 l 1
 338 480 l 1
 338 351 l 1
 209 351 l 1
209 493 m 1
 209 622 l 1
 338 622 l 1
 338 493 l 1
 209 493 l 1
209 635 m 1
 209 764 l 1
 338 764 l 1
 338 635 l 1
 209 635 l 1
209 777 m 1
 209 906 l 1
 338 906 l 1
 338 777 l 1
 209 777 l 1
209 68 m 1
 209 196 l 1
 338 196 l 1
 338 68 l 1
 209 68 l 1
351 68 m 1
 351 196 l 1
 479 196 l 1
 479 68 l 1
 351 68 l 1
492 68 m 1
 492 196 l 1
 621 196 l 1
 621 68 l 1
 492 68 l 1
209 919 m 1
 209 1048 l 1
 338 1048 l 1
 338 919 l 1
 209 919 l 1
351 919 m 1
 351 1048 l 1
 479 1048 l 1
 479 919 l 1
 351 919 l 1
492 919 m 1
 492 1048 l 1
 621 1048 l 1
 621 919 l 1
 492 919 l 1
EndSplineSet
EndChar

StartChar: bracketright
Encoding: 93 93 68
Width: 801
VWidth: 1834
Flags: HW
LayerCount: 2
Fore
SplineSet
492 210 m 1
 492 339 l 1
 621 339 l 1
 621 210 l 1
 492 210 l 1
492 351 m 1
 492 480 l 1
 621 480 l 1
 621 351 l 1
 492 351 l 1
492 493 m 1
 492 622 l 1
 621 622 l 1
 621 493 l 1
 492 493 l 1
492 635 m 1
 492 764 l 1
 621 764 l 1
 621 635 l 1
 492 635 l 1
492 777 m 1
 492 906 l 1
 621 906 l 1
 621 777 l 1
 492 777 l 1
209 68 m 1
 209 196 l 1
 338 196 l 1
 338 68 l 1
 209 68 l 1
351 68 m 1
 351 196 l 1
 479 196 l 1
 479 68 l 1
 351 68 l 1
492 68 m 1
 492 196 l 1
 621 196 l 1
 621 68 l 1
 492 68 l 1
209 919 m 1
 209 1048 l 1
 338 1048 l 1
 338 919 l 1
 209 919 l 1
351 919 m 1
 351 1048 l 1
 479 1048 l 1
 479 919 l 1
 351 919 l 1
492 919 m 1
 492 1048 l 1
 621 1048 l 1
 621 919 l 1
 492 919 l 1
EndSplineSet
EndChar
